<svg width="44" height="44" viewBox="0 0 44 44" fill="none" xmlns="http://www.w3.org/2000/svg">
<g clip-path="url(#clip0_50_389)">
<path fill-rule="evenodd" clip-rule="evenodd" d="M42.1667 11H1.83333V9.16667C1.83333 6.12911 4.29577 3.66667 7.33333 3.66667H9.16666V1.83333C9.16666 0.820811 9.98748 0 11 0C12.0125 0 12.8333 0.820811 12.8333 1.83333V3.66667H31.1667V1.83333C31.1667 0.820811 31.9874 0 33 0C34.0125 0 34.8333 0.820811 34.8333 1.83333V3.66667H36.6667C39.7043 3.66667 42.1667 6.12911 42.1667 9.16667V11ZM42.1667 14.6667V38.5C42.1667 41.5377 39.7043 44 36.6667 44H7.33333C4.29577 44 1.83333 41.5377 1.83333 38.5V14.6667H42.1667ZM11 33C9.98748 33 9.16666 33.8208 9.16666 34.8333C9.16666 35.8459 9.98748 36.6667 11 36.6667C12.0125 36.6667 12.8333 35.8459 12.8333 34.8333C12.8333 33.8208 12.0125 33 11 33ZM18.3333 33C17.3208 33 16.5 33.8208 16.5 34.8333C16.5 35.8459 17.3208 36.6667 18.3333 36.6667C19.3459 36.6667 20.1667 35.8459 20.1667 34.8333C20.1667 33.8208 19.3459 33 18.3333 33ZM25.6667 33C24.6541 33 23.8333 33.8208 23.8333 34.8333C23.8333 35.8459 24.6541 36.6667 25.6667 36.6667C26.6792 36.6667 27.5 35.8459 27.5 34.8333C27.5 33.8208 26.6792 33 25.6667 33ZM11 25.6667C9.98748 25.6667 9.16666 26.4875 9.16666 27.5C9.16666 28.5126 9.98748 29.3333 11 29.3333C12.0125 29.3333 12.8333 28.5126 12.8333 27.5C12.8333 26.4875 12.0125 25.6667 11 25.6667ZM18.3333 25.6667C17.3208 25.6667 16.5 26.4875 16.5 27.5C16.5 28.5126 17.3208 29.3333 18.3333 29.3333C19.3459 29.3333 20.1667 28.5126 20.1667 27.5C20.1667 26.4875 19.3459 25.6667 18.3333 25.6667ZM25.6667 25.6667C24.6541 25.6667 23.8333 26.4875 23.8333 27.5C23.8333 28.5126 24.6541 29.3333 25.6667 29.3333C26.6792 29.3333 27.5 28.5126 27.5 27.5C27.5 26.4875 26.6792 25.6667 25.6667 25.6667ZM11 18.3333C9.98748 18.3333 9.16666 19.1541 9.16666 20.1667C9.16666 21.1792 9.98748 22 11 22C12.0125 22 12.8333 21.1792 12.8333 20.1667C12.8333 19.1541 12.0125 18.3333 11 18.3333ZM18.3333 18.3333C17.3208 18.3333 16.5 19.1541 16.5 20.1667C16.5 21.1792 17.3208 22 18.3333 22C19.3459 22 20.1667 21.1792 20.1667 20.1667C20.1667 19.1541 19.3459 18.3333 18.3333 18.3333ZM25.6667 18.3333C24.6541 18.3333 23.8333 19.1541 23.8333 20.1667C23.8333 21.1792 24.6541 22 25.6667 22C26.6792 22 27.5 21.1792 27.5 20.1667C27.5 19.1541 26.6792 18.3333 25.6667 18.3333ZM33 33C31.9874 33 31.1667 33.8208 31.1667 34.8333C31.1667 35.8459 31.9874 36.6667 33 36.6667C34.0125 36.6667 34.8333 35.8459 34.8333 34.8333C34.8333 33.8208 34.0125 33 33 33ZM33 25.6667C31.9874 25.6667 31.1667 26.4875 31.1667 27.5C31.1667 28.5126 31.9874 29.3333 33 29.3333C34.0125 29.3333 34.8333 28.5126 34.8333 27.5C34.8333 26.4875 34.0125 25.6667 33 25.6667ZM33 18.3333C31.9874 18.3333 31.1667 19.1541 31.1667 20.1667C31.1667 21.1792 31.9874 22 33 22C34.0125 22 34.8333 21.1792 34.8333 20.1667C34.8333 19.1541 34.0125 18.3333 33 18.3333Z" fill="#01B7F1"/>
</g>
<defs>
<clipPath id="clip0_50_389">
<rect width="44" height="44" fill="white"/>
</clipPath>
</defs>
</svg>
