<svg width="44" height="44" viewBox="0 0 44 44" fill="none" xmlns="http://www.w3.org/2000/svg">
<g clip-path="url(#clip0_50_159)">
<path d="M39.6254 18.7632C39.465 18.204 39.3389 17.6504 39.2718 17.0779C39.206 16.5121 39.1635 15.9452 39.0621 15.3816C38.9593 14.8136 38.7798 14.2567 38.5824 13.7063C38.2658 12.8256 37.9383 11.9492 37.6107 11.0707C37.4696 10.4618 37.3161 9.8529 37.1064 9.25616C36.9337 8.76329 36.7226 8.27926 36.4595 7.81292C36.2786 7.49465 35.9182 6.73767 35.3165 6.95869C35.1425 7.02278 35.0081 7.16755 34.9012 7.31895C34.8327 6.7012 34.7642 6.08346 34.6957 5.46683C34.6669 5.21155 34.682 4.89329 34.4161 4.71316C34.1762 4.55071 33.846 4.59713 33.5869 4.70432C33.1169 4.89771 32.7674 5.29333 32.5508 5.68453C32.5221 5.49114 32.4946 5.29775 32.4659 5.10325C32.4385 4.92313 32.4275 4.72642 32.2945 4.57281C31.9793 4.20482 31.401 4.40484 31.0652 4.6358C30.6924 4.89108 30.4416 5.24581 30.2854 5.61601C30.1209 6.00942 30.0743 6.42714 30.062 6.84155C29.9935 6.82829 29.9222 6.82718 29.8551 6.83934C29.8605 6.76751 29.8551 6.69568 29.8386 6.62385C29.7153 6.10667 28.9999 6.00169 28.4763 6.18182C28.4448 6.19287 28.4147 6.20613 28.3845 6.21828C28.7847 5.4403 29.1684 4.65791 29.5316 3.86667C29.7756 3.33291 30.1168 2.68423 29.6275 2.16926C29.4261 1.95708 29.1246 1.84436 28.7957 1.87751C28.4489 1.91177 28.1159 2.07311 27.8322 2.23004C27.6951 2.30518 27.5649 2.38917 27.443 2.47647C27.5156 2.32286 27.5828 2.16705 27.6417 2.01012C27.7513 1.71617 27.8295 1.41559 27.8692 1.11169C27.9048 0.831001 27.9062 0.521577 27.6883 0.283984C27.3032 -0.132632 26.5563 -0.0431203 26.1012 0.237571C25.8066 0.418805 25.59 0.664133 25.3639 0.899516C25.1117 1.16474 24.8596 1.43106 24.606 1.69739C24.2812 2.03775 23.9578 2.37922 23.633 2.71959C23.7632 2.3969 23.8714 2.06869 23.9537 1.73606C24.0222 1.46311 24.066 1.16474 23.9098 0.905041C23.7673 0.667448 23.4644 0.531523 23.1423 0.528208C22.4324 0.520472 21.828 0.982397 21.362 1.35923C20.8111 1.80568 20.3575 2.31844 19.9915 2.87209C19.8106 3.14615 19.6421 3.42684 19.431 3.68764C19.2145 3.95507 18.9404 4.16504 18.6443 4.37611C18.351 4.58386 18.0975 4.8093 17.9029 5.08336C17.7124 5.3519 17.5753 5.64143 17.4205 5.92323C16.7914 7.07251 15.7142 7.982 14.711 8.92242C14.267 9.34014 13.8202 9.78439 13.4419 10.2585C13.6776 9.74681 13.9805 9.25616 14.3643 8.80197C14.6027 8.52128 14.8727 8.26158 15.1674 8.01736C15.4826 7.75656 15.8129 7.50792 16.0897 7.22059C16.6393 6.65148 16.9888 5.97737 17.2684 5.29775C17.5055 4.71868 17.6864 3.97054 17.134 3.46441C16.8339 3.19146 16.4351 3.27987 16.1418 3.50862C15.8334 3.74953 15.5511 4.0048 15.2222 4.22913C14.8768 4.46452 14.5082 4.6778 14.1217 4.86677C13.7462 5.0491 13.3501 5.19829 12.9677 5.37068C12.5881 5.53976 12.2359 5.74199 11.9398 5.99948C11.6342 6.26249 11.3848 6.56528 11.1504 6.87139C9.96494 8.42624 8.82331 10.0043 7.65976 11.5702C7.62275 11.6221 7.62686 11.673 7.65565 11.7117C7.34317 12.2896 7.24586 12.925 7.2116 13.5538C7.16912 14.3384 7.17597 15.1242 7.15267 15.9099C7.128 16.7166 7.08826 17.5233 6.99643 18.3267C6.90598 19.1113 6.78538 19.9081 6.52635 20.6684C6.28103 21.3889 5.7808 22.1481 4.83789 22.3901C4.76388 22.4089 4.72414 22.4509 4.70906 22.4984C4.67069 22.5415 4.65287 22.5989 4.68576 22.6597C5.96581 24.9649 8.00786 26.9364 10.2884 28.6437C10.6146 28.888 10.9407 29.1322 11.282 29.3598C11.6233 29.5875 11.9919 29.7886 12.4277 29.8726C12.488 29.8848 12.5387 29.8726 12.5785 29.8505C12.5812 29.8483 12.5853 29.8472 12.5881 29.8461C12.6388 29.8184 12.6895 29.7908 12.7402 29.7621C13.15 29.54 13.5543 29.3101 13.9545 29.0747C14.4643 28.7752 14.9673 28.4669 15.4607 28.1476C15.8951 27.868 16.3597 27.5342 16.6489 27.1364C16.6544 27.1607 16.6585 27.1861 16.6626 27.2104C16.7106 27.4525 16.764 27.7066 16.8805 27.9321C17.0258 28.2128 17.3602 28.3487 17.7247 28.4205C17.9879 28.4736 18.2661 28.4935 18.5004 28.5111C19.8915 28.6172 21.2771 28.32 22.601 28.0083C25.2776 27.3784 27.9007 26.6015 30.4485 25.6876C32.8112 24.8412 35.1932 23.9151 37.2311 22.6133C37.73 22.295 38.2055 21.9525 38.6455 21.5823C39.0648 21.2308 39.4856 20.8518 39.6843 20.3821C39.9091 19.8539 39.7761 19.287 39.6226 18.7588L39.6254 18.7632Z" fill="#01B7F1"/>
<path d="M17.3081 24.7716C16.3816 26.0512 14.9632 27.2049 13.6105 27.8569C13.1692 28.0702 12.7087 28.2537 12.2331 28.4095C12.1221 28.446 12.1605 28.5874 12.2646 28.6084C12.7704 28.7045 13.287 28.8018 13.7557 28.9874C13.8243 29.014 13.8914 29.0438 13.9572 29.0758C14.467 28.7764 14.97 28.4681 15.4634 28.1487C15.8978 27.8691 16.3624 27.5354 16.6516 27.1375C16.6571 27.1618 16.6612 27.1873 16.6653 27.2116C16.6763 27.1696 16.6873 27.1265 16.6955 27.0845C16.8147 26.5618 16.9339 26.0402 17.0532 25.5175C17.2272 25.3097 17.3903 25.0964 17.5411 24.8754C17.6247 24.755 17.3958 24.6489 17.3081 24.7693V24.7716Z" fill="white"/>
<path d="M14.467 13.4334C14.2861 13.1019 14.049 12.7725 13.6913 12.5449C13.4419 12.3858 13.1664 12.3084 12.8745 12.2841C13.1349 11.3392 13.4912 10.4099 13.9449 9.51365C14.0545 9.29816 14.2162 9.07825 14.2834 8.8517C14.3478 8.63842 14.2204 8.46382 14.0833 8.28922C13.8229 7.95548 13.4789 7.64827 12.991 7.5455C12.7553 7.49577 12.658 7.79082 12.8951 7.84055C13.3295 7.93227 13.6119 8.24059 13.8284 8.53786C13.8969 8.6329 13.9463 8.70362 13.9024 8.81634C13.8613 8.92022 13.7941 9.02078 13.7407 9.12134C13.6379 9.31584 13.5378 9.51254 13.4433 9.71035C13.0486 10.5336 12.7334 11.3801 12.4976 12.2421C12.4935 12.2554 12.4922 12.2686 12.4935 12.2808C12.4346 12.2841 12.3757 12.2885 12.3154 12.2951C11.2011 12.4101 10.0965 12.6576 9.04671 12.9759C8.82058 13.0444 8.91514 13.3406 9.14264 13.2709C10.1061 12.9792 11.1038 12.7615 12.1194 12.6256C12.5867 12.5637 13.0664 12.5305 13.4584 12.7836C13.7749 12.9891 13.975 13.2897 14.1368 13.5848C14.2354 13.7649 14.5644 13.6124 14.4657 13.4334H14.467Z" fill="white"/>
<path d="M21.4662 12.0156C21.0866 11.7769 20.6809 11.5846 20.241 11.4288C19.8257 11.2829 19.479 11.1216 19.2268 10.8099C19.1144 10.6707 19.0212 10.5226 18.9335 10.3723C18.8924 10.3016 18.8595 10.1955 18.78 10.1458C18.6978 10.0949 18.5539 10.0927 18.4539 10.0739C18.0208 9.99216 17.6 9.87281 17.1998 9.71589C16.7366 9.53355 16.3022 9.3059 15.9102 9.03626C15.7266 8.90917 15.4566 9.12467 15.643 9.25175C16.4721 9.82308 17.4657 10.2198 18.5347 10.3977C18.7622 10.8011 19.0212 11.2044 19.4872 11.4608C19.749 11.6045 20.0532 11.6862 20.3356 11.7968C20.6412 11.9172 20.9331 12.062 21.2003 12.2311C21.3895 12.3504 21.6608 12.136 21.4676 12.0156H21.4662Z" fill="white"/>
<path d="M26.9386 3.03124C26.8427 2.98703 26.7399 3.02129 26.681 3.0887C26.2328 3.60367 25.8833 4.16947 25.638 4.76732C25.5613 4.95408 25.9286 5.03144 26.0039 4.84468C26.2383 4.27225 26.5796 3.73296 27.0099 3.23899C27.0688 3.17158 27.0209 3.06881 26.9386 3.03013V3.03124Z" fill="white"/>
<path d="M25.442 5.26902C24.7897 6.13872 24.1579 7.01837 23.5466 7.90686C22.9518 8.77324 22.3365 9.64294 21.8472 10.5513C21.58 11.0464 21.3621 11.5581 21.2483 12.0918C21.2072 12.2841 21.5731 12.3637 21.6142 12.1692C21.8143 11.2265 22.342 10.3668 22.8902 9.52801C23.4671 8.64284 24.0661 7.76651 24.6842 6.90013C25.0391 6.40284 25.4009 5.90887 25.7696 5.41821C25.8957 5.25024 25.5668 5.09884 25.4407 5.26681L25.442 5.26902Z" fill="white"/>
<path d="M22.3694 4.59824C22.0624 4.95629 21.754 5.31212 21.4511 5.67238C21.1606 6.01717 20.8865 6.373 20.6919 6.76089C20.5973 6.94986 20.5219 7.14545 20.4178 7.33111C20.3122 7.51787 20.182 7.69468 20.0491 7.87039C19.7846 8.2207 19.5461 8.57543 19.3337 8.94895C19.098 9.36557 18.8705 9.7866 18.5566 10.1712C18.4237 10.3358 18.7526 10.4861 18.8855 10.3226C19.4392 9.64073 19.7476 8.85391 20.2739 8.15771C20.5384 7.8074 20.7686 7.46261 20.944 7.07805C21.1249 6.67801 21.3757 6.31333 21.6663 5.9597C22.0007 5.55192 22.3529 5.15299 22.6983 4.75074C22.8367 4.5894 22.5064 4.43911 22.3694 4.59934V4.59824Z" fill="white"/>
<path d="M23.744 3.36829C23.7316 3.33182 23.6974 3.29204 23.6549 3.27435C23.5727 3.2401 23.437 3.25225 23.3959 3.33182C23.3424 3.4357 23.2794 3.53736 23.2095 3.63572C23.1738 3.68434 23.1368 3.73186 23.0971 3.77938C23.0779 3.80258 23.0573 3.82579 23.0368 3.849C23.0272 3.86005 23.0176 3.87331 23.0053 3.88326C23.045 3.8501 23.0053 3.88326 22.9957 3.8921C22.9628 3.92525 22.9409 3.95619 22.9409 4.00039C22.9409 4.03797 22.9614 4.08217 22.9957 4.10869C23.0642 4.15953 23.1985 4.1761 23.2629 4.10869C23.4507 3.91641 23.6083 3.70976 23.7248 3.48432C23.744 3.44564 23.7563 3.41249 23.7426 3.3705L23.744 3.36829Z" fill="white"/>
<path d="M28.2324 9.32469C27.4224 11.2508 26.6248 13.1803 25.8381 15.112C25.6298 15.6226 25.4228 16.1342 25.2173 16.6459C25.1995 16.6624 25.1858 16.6823 25.1775 16.7089C24.6609 18.3687 22.9203 19.4981 21.4827 20.6529C20.0669 21.7878 18.632 22.9758 17.5986 24.3638C17.0491 25.1031 16.6283 25.9087 16.4447 26.7607C16.4036 26.953 16.7695 27.0325 16.8106 26.838C17.1436 25.2998 18.2442 23.9748 19.4845 22.8111C20.1629 22.1746 20.8851 21.5679 21.6197 20.9745C22.3817 20.3589 23.1903 19.7777 23.903 19.1224C24.6197 18.4626 25.2337 17.7145 25.5202 16.8614C25.5311 16.8492 25.5393 16.8359 25.5462 16.8194C26.326 14.8855 27.1168 12.9549 27.9199 11.0265C28.146 10.485 28.3722 9.94353 28.5997 9.40204C28.6778 9.21528 28.3119 9.13903 28.2338 9.32469H28.2324Z" fill="white"/>
<path d="M35.5166 18.8704C35.2864 18.4681 34.7204 18.3245 34.2174 18.2615C33.7528 18.2029 33.073 18.193 32.8112 17.815C32.7564 17.7355 32.7249 17.646 32.6701 17.5653C32.6564 15.0236 32.9935 12.4709 32.4974 9.94464C32.359 9.2418 32.1877 8.53897 32.2439 7.82288C32.2589 7.62617 31.8807 7.62728 31.8656 7.82288C31.8176 8.44835 31.9382 9.0683 32.0629 9.68384C32.1918 10.3159 32.2932 10.9481 32.3425 11.5879C32.4412 12.8576 32.3878 14.1307 32.3398 15.4015C32.3165 16.0403 32.2946 16.679 32.2932 17.3178C32.2905 17.3178 32.2877 17.3155 32.285 17.3144C31.9519 17.2083 31.6052 17.1244 31.2612 17.0481C30.909 16.9697 30.5513 16.9078 30.1881 16.8691C29.8921 16.837 29.596 16.8227 29.3082 16.7597C29.3261 16.7387 29.337 16.7122 29.3384 16.6801C29.3836 15.4877 29.8537 14.3484 30.1196 13.1836C30.2525 12.5979 30.3252 12.0078 30.2991 11.4122C30.2731 10.8011 30.1717 10.1944 30.1045 9.58548C30.0291 8.90144 29.9949 8.20855 30.1662 7.53224C30.2155 7.33996 29.8482 7.26149 29.8002 7.45488C29.4905 8.6749 29.8085 9.90043 29.903 11.1238C29.9496 11.7271 29.9167 12.325 29.7934 12.9217C29.6701 13.5141 29.4864 14.0975 29.3233 14.6832C29.141 15.3352 28.9875 15.9939 28.9601 16.6624C28.6572 16.5696 28.3681 16.479 28.035 16.4503C27.6321 16.416 27.2251 16.4492 26.8235 16.4823C26.5837 16.5022 26.5809 16.8083 26.8235 16.7873C27.1689 16.7586 27.5156 16.7298 27.8637 16.7442C28.2077 16.7586 28.5161 16.8393 28.8327 16.9442C29.1451 17.0481 29.4521 17.1067 29.7879 17.1365C30.136 17.1686 30.4786 17.2083 30.8199 17.2724C31.157 17.3365 31.4887 17.4161 31.8176 17.5045C31.9588 17.5421 32.1534 17.5708 32.2726 17.6471C32.3795 17.7156 32.4056 17.8416 32.4631 17.9366C32.6975 18.319 33.2525 18.4538 33.7363 18.5146C34.2379 18.5787 34.941 18.5919 35.1877 19.0218C35.2905 19.2008 35.618 19.0483 35.5166 18.8704Z" fill="white"/>
<path d="M32.3247 6.19731C32.2301 6.18073 32.1137 6.22272 32.0931 6.30671C32.041 6.52773 32.0026 6.74985 31.978 6.97418C31.9698 7.05375 32.0712 7.13 32.1671 7.12668C32.2767 7.12337 32.3466 7.05927 32.3562 6.97418C32.3617 6.92114 32.3686 6.8692 32.3754 6.81615C32.3782 6.79184 32.3809 6.76753 32.3864 6.74322C32.3795 6.77748 32.3864 6.74101 32.3878 6.73327C32.3905 6.71891 32.3919 6.70454 32.3946 6.69128C32.4124 6.58851 32.4344 6.48573 32.4577 6.38407C32.4768 6.30561 32.4275 6.21609 32.322 6.19731H32.3247Z" fill="white"/>
<path d="M35.9373 11.7537C35.7249 11.7526 35.518 11.7327 35.3138 11.6885C35.2384 11.6719 35.1082 11.6586 35.0479 11.6144C34.9917 11.5724 35.0123 11.4951 35.0109 11.4354C35.0068 11.1171 34.941 10.8 34.856 10.4894C34.6806 9.85402 34.4161 9.22744 34.4408 8.56881C34.4476 8.3721 34.0693 8.3721 34.0625 8.56881C34.0337 9.31474 34.3585 10.0198 34.5353 10.7425C34.5805 10.9271 34.6148 11.1127 34.6271 11.3017C34.6367 11.4553 34.5997 11.6354 34.7107 11.7713C34.819 11.9028 35.0397 11.947 35.2165 11.9857C35.4508 12.0366 35.6948 12.0598 35.9373 12.062C36.1813 12.0631 36.1813 11.7581 35.9373 11.757V11.7537Z" fill="white"/>
<path d="M36.5212 11.7492C36.2772 11.7492 36.2772 12.0542 36.5212 12.0542C36.7651 12.0542 36.7651 11.7492 36.5212 11.7492Z" fill="white"/>
<path d="M35.4755 14.4412C35.4234 14.0323 35.285 13.6367 35.1849 13.2356C35.063 12.7471 34.9931 12.2509 34.9698 11.7537C34.9602 11.557 34.5819 11.568 34.5915 11.7647C34.6121 12.1979 34.6696 12.6289 34.7601 13.0566C34.8478 13.4699 34.9972 13.8743 35.0712 14.2887C35.2206 15.1153 35.0301 15.9475 34.9355 16.7696C34.8821 17.2404 34.8601 17.7145 34.941 18.1841C34.9739 18.3775 35.3535 18.3687 35.3193 18.1731C35.1754 17.3432 35.3604 16.5144 35.4536 15.6878C35.5002 15.2734 35.5276 14.8556 35.4741 14.4412H35.4755Z" fill="white"/>
<path d="M15.1235 14.5981C15.0769 14.4125 14.9865 14.2313 14.859 14.071C14.8056 14.0036 14.6904 13.9682 14.6014 14.0136C14.5178 14.0555 14.4725 14.1495 14.5301 14.2224C14.5835 14.2909 14.6301 14.3617 14.6685 14.4368C14.7055 14.5142 14.7357 14.5948 14.7562 14.6766C14.7754 14.7551 14.8933 14.8092 14.9878 14.786C15.0906 14.7606 15.1441 14.6832 15.1235 14.5992V14.5981Z" fill="white"/>
<path d="M15.3154 15.4347C15.2743 15.2402 14.9083 15.3198 14.9495 15.5121C15.2948 17.1299 14.9659 18.8328 14.0504 20.2971C13.79 20.7148 13.4817 21.1115 13.1322 21.4839C13.0705 21.5502 13.124 21.6541 13.2034 21.6928C13.3007 21.7392 13.4008 21.7005 13.4611 21.6353C14.7343 20.2783 15.4333 18.5886 15.4607 16.889C15.4689 16.4016 15.4182 15.9154 15.3154 15.4347Z" fill="white"/>
<path d="M15.954 19.1168C15.8471 19.0936 15.7594 19.1489 15.7224 19.2262C15.4785 19.7467 15.1208 20.2341 14.6726 20.6562C14.6068 20.7192 14.5959 20.8109 14.6726 20.8717C14.7411 20.927 14.8741 20.9347 14.9399 20.8717C15.4346 20.4054 15.8197 19.8771 16.0883 19.3025C16.124 19.2251 16.0445 19.1356 15.9527 19.1157L15.954 19.1168Z" fill="white"/>
<path d="M16.2336 18.4692C16.2336 18.4692 16.2336 18.4648 16.2323 18.4626C16.2323 18.4604 16.2309 18.4582 16.2295 18.456C16.224 18.4427 16.2172 18.4295 16.2103 18.4173C16.2103 18.4173 16.2103 18.4151 16.209 18.414C16.1966 18.3952 16.1802 18.3797 16.1583 18.3687C16.1391 18.3554 16.1171 18.3455 16.0925 18.3411C16.0678 18.3355 16.0445 18.3344 16.0198 18.3388C15.9952 18.3388 15.9719 18.3455 15.9499 18.3565C15.9362 18.3643 15.9225 18.3731 15.9102 18.3808C15.8855 18.4007 15.8691 18.4239 15.8609 18.4505C15.8595 18.4637 15.8567 18.4759 15.8554 18.4891C15.8554 18.4913 15.8554 18.4925 15.8554 18.4947C15.8444 18.5079 15.8348 18.5212 15.8307 18.5378C15.8239 18.5577 15.8225 18.5764 15.828 18.5963C15.828 18.6162 15.8362 18.635 15.8499 18.6527L15.88 18.6847C15.9047 18.7046 15.9335 18.7179 15.9664 18.7245C15.9828 18.7267 15.9979 18.7278 16.0144 18.73C16.0472 18.73 16.0788 18.7234 16.1076 18.7102C16.1103 18.7091 16.1117 18.7079 16.1144 18.7057C16.1295 18.6969 16.1459 18.6881 16.1596 18.677C16.161 18.6759 16.1637 18.6737 16.1651 18.6726C16.1651 18.6726 16.1665 18.6704 16.1679 18.6704C16.1788 18.6593 16.1898 18.6472 16.2007 18.6361C16.2035 18.6328 16.2062 18.6284 16.209 18.6251C16.2186 18.6096 16.2268 18.5941 16.2323 18.5775C16.2377 18.5621 16.2391 18.5422 16.2419 18.5278C16.2419 18.5234 16.2419 18.519 16.2419 18.5146C16.2405 18.5002 16.2377 18.4847 16.235 18.4704L16.2336 18.4692Z" fill="white"/>
<path d="M20.8042 17.0083C19.1966 15.7132 18.3579 13.8622 18.4703 12.0377C18.5018 11.5194 18.6156 11.0066 18.8047 10.5104C18.8759 10.3226 18.51 10.2452 18.4388 10.4331C17.7412 12.2631 18.0906 14.3152 19.3077 15.9541C19.6503 16.416 20.0642 16.8448 20.537 17.2249C20.7097 17.3642 20.9769 17.1487 20.8042 17.0094V17.0083Z" fill="white"/>
<path d="M21.3223 11.9846C20.8646 12.01 20.4233 12.1791 20.1245 12.4631C20.0601 12.5239 20.045 12.62 20.1245 12.6786C20.1958 12.7306 20.3232 12.7438 20.3917 12.6786C20.4548 12.6178 20.5247 12.5626 20.6014 12.514C20.6028 12.514 20.611 12.5084 20.6165 12.5051C20.6247 12.5007 20.6357 12.4941 20.6357 12.4941C20.6535 12.4841 20.6727 12.4731 20.6919 12.4642C20.7344 12.4421 20.7782 12.4222 20.8221 12.4034C20.8426 12.3957 20.8618 12.3869 20.8824 12.3802C20.8947 12.3758 20.9084 12.3714 20.9207 12.367C20.966 12.3537 21.0098 12.3405 21.0564 12.3305C21.1044 12.3195 21.1537 12.3106 21.2031 12.3029C21.214 12.3018 21.225 12.2996 21.236 12.2985C21.2387 12.2985 21.2414 12.2985 21.2442 12.2985C21.2702 12.2963 21.2963 12.294 21.3209 12.2929C21.4196 12.2874 21.5155 12.2266 21.5101 12.1404C21.506 12.062 21.4265 11.9813 21.3209 11.9879L21.3223 11.9846Z" fill="white"/>
<path d="M19.8846 13.3925C19.9203 13.3693 19.9395 13.3196 19.9395 13.2842C19.9395 13.2466 19.9189 13.2024 19.8846 13.1759C19.849 13.1494 19.801 13.1295 19.7503 13.1317C19.7339 13.1328 19.7188 13.135 19.7024 13.1372C19.6695 13.1439 19.6407 13.1571 19.616 13.177C19.5379 13.2278 19.4721 13.2941 19.4228 13.3649C19.3734 13.4345 19.3364 13.5141 19.3227 13.5936C19.3159 13.6345 19.3145 13.671 19.3405 13.7074C19.3638 13.7406 19.4104 13.7715 19.457 13.7793C19.5036 13.787 19.5571 13.7859 19.5982 13.7649C19.6379 13.7439 19.6804 13.7108 19.6873 13.671C19.6941 13.6345 19.7065 13.5991 19.7215 13.5638C19.7394 13.5328 19.7599 13.503 19.7832 13.4754C19.8134 13.4455 19.8449 13.4168 19.8819 13.3925H19.8846Z" fill="white"/>
<path d="M13.0349 26.5618C12.6087 25.9739 12.0961 25.428 11.5081 24.9395C11.3382 24.7981 11.071 25.0147 11.2409 25.155C11.8055 25.6258 12.2962 26.1474 12.706 26.7121C12.8293 26.8822 13.1582 26.7309 13.0349 26.5607V26.5618Z" fill="white"/>
<path d="M13.5091 27.1574C13.4748 27.1055 13.4405 27.0535 13.4076 27.0027C13.3953 26.9839 13.3789 26.9685 13.3569 26.9574C13.3377 26.9441 13.3158 26.9342 13.2911 26.9298C13.2665 26.9242 13.2432 26.9231 13.2185 26.9276C13.1938 26.9276 13.1705 26.9342 13.1486 26.9452C13.1349 26.953 13.1212 26.9618 13.1089 26.9696C13.0842 26.9894 13.0678 27.0127 13.0595 27.0392C13.0582 27.0524 13.0554 27.0646 13.054 27.0779C13.054 27.1044 13.0623 27.1298 13.0787 27.153C13.113 27.2049 13.1472 27.2569 13.1801 27.3077C13.1925 27.3265 13.2089 27.342 13.2308 27.353C13.25 27.3663 13.272 27.3762 13.2966 27.3806C13.3213 27.3862 13.3446 27.3873 13.3693 27.3829C13.3939 27.3829 13.4172 27.3762 13.4392 27.3652L13.4789 27.3409C13.5036 27.321 13.52 27.2978 13.5282 27.2712C13.531 27.258 13.5324 27.2458 13.5351 27.2326C13.5351 27.206 13.5269 27.1806 13.5104 27.1574H13.5091Z" fill="white"/>
<path d="M27.7335 7.00401C27.0496 8.27817 26.2876 9.52581 25.4503 10.7392C25.0391 11.3337 24.6047 11.9139 24.3073 12.5526C24.1592 12.8698 24.0332 13.1936 23.8755 13.5085C23.7234 13.8091 23.5178 14.0887 23.3643 14.3882C23.1026 14.8998 23.0683 15.6325 23.7796 15.9265C23.9961 16.016 24.1853 15.7507 23.9674 15.6612C23.3561 15.4093 23.5644 14.7506 23.7947 14.3583C23.9591 14.0788 24.1359 13.8069 24.2771 13.5174C24.4196 13.2245 24.5375 12.925 24.6745 12.6311C24.9569 12.0255 25.3776 11.4752 25.7668 10.9116C26.1588 10.3447 26.5343 9.76893 26.8934 9.18766C27.3059 8.51908 27.6965 7.84056 28.0638 7.15541C28.1597 6.97749 27.8308 6.82388 27.7349 7.00401H27.7335Z" fill="white"/>
<path d="M24.5964 16.1066C24.5855 16.0889 24.5745 16.0723 24.5649 16.0546C24.5526 16.0359 24.5361 16.0204 24.5142 16.0093C24.495 15.9961 24.4731 15.9861 24.4484 15.9817C24.4238 15.9762 24.4005 15.9751 24.3758 15.9795C24.3511 15.9795 24.3278 15.9861 24.3059 15.9972L24.2662 16.0215C24.2415 16.0414 24.225 16.0646 24.2168 16.0911C24.2154 16.1044 24.2127 16.1165 24.2113 16.1298C24.2113 16.1563 24.2196 16.1817 24.236 16.2049C24.247 16.2226 24.2579 16.2392 24.2675 16.2569C24.2799 16.2757 24.2963 16.2911 24.3182 16.3022C24.3374 16.3154 24.3593 16.3254 24.384 16.3298C24.4087 16.3353 24.432 16.3364 24.4567 16.332C24.4813 16.332 24.5046 16.3254 24.5266 16.3143C24.5403 16.3066 24.554 16.2978 24.5663 16.29C24.591 16.2701 24.6074 16.2469 24.6156 16.2204C24.617 16.2072 24.6197 16.195 24.6211 16.1817C24.6211 16.1552 24.6129 16.1298 24.5964 16.1066Z" fill="white"/>
<path d="M23.1273 13.8158C22.9806 13.6522 22.8066 13.5052 22.6531 13.3461C22.4886 13.1759 22.3433 12.9936 22.209 12.8068C22.087 12.6366 21.7581 12.7869 21.8801 12.9582C22.1282 13.3063 22.4393 13.6036 22.749 13.9152C23.0491 14.218 23.1053 14.5893 23.1464 14.9628C23.167 15.1573 23.5466 15.1595 23.5247 14.9628C23.4808 14.5639 23.426 14.1506 23.1273 13.8158Z" fill="white"/>
<path d="M25.0487 9.39651C24.8843 9.19207 24.6609 9.02078 24.395 8.90364C24.3086 8.86496 24.1839 8.88707 24.1373 8.96111C24.0907 9.03404 24.1154 9.12798 24.2086 9.16997C24.2716 9.1976 24.3319 9.22964 24.3909 9.2639C24.4937 9.3291 24.5869 9.40425 24.6677 9.48713C24.6855 9.50702 24.7033 9.52691 24.7212 9.54791C24.7746 9.61532 24.8897 9.65068 24.9788 9.60537C25.061 9.56338 25.1076 9.46834 25.0501 9.39651H25.0487Z" fill="white"/>
<path d="M25.3954 9.68274C25.1515 9.68274 25.1515 9.98774 25.3954 9.98774C25.6394 9.98774 25.6394 9.68274 25.3954 9.68274Z" fill="white"/>
<path d="M24.9363 10.1855C24.9226 10.1491 24.8925 10.1071 24.8472 10.0916C24.7307 10.0518 24.6211 10.001 24.5183 9.94021C24.4429 9.89159 24.373 9.83855 24.3086 9.77998C24.2428 9.7192 24.1058 9.72251 24.0414 9.77998C23.9674 9.84518 23.9715 9.93137 24.0414 9.99547C24.2086 10.1513 24.4237 10.2784 24.6595 10.3579C24.7074 10.3734 24.7499 10.3834 24.8006 10.3723C24.8459 10.3624 24.8952 10.3347 24.9171 10.3005C24.9391 10.2662 24.95 10.2242 24.9349 10.1866L24.9363 10.1855Z" fill="white"/>
<path d="M22.4365 8.17429C22.3598 8.14777 22.2872 8.11572 22.2173 8.08036C22.1994 8.07152 22.1816 8.06157 22.1638 8.05162C22.157 8.0472 22.1501 8.04389 22.1432 8.03947C22.1131 8.01847 22.0816 7.99858 22.0514 7.97758C21.9925 7.93338 21.9363 7.88586 21.887 7.83503C21.887 7.83503 21.887 7.83503 21.8883 7.83724C21.8842 7.83061 21.8774 7.82508 21.8719 7.81845C21.8596 7.80409 21.8472 7.79082 21.8363 7.77646C21.813 7.74773 21.791 7.71789 21.7705 7.68805C21.7225 7.61843 21.5978 7.58749 21.5128 7.63059C21.4251 7.67479 21.3908 7.7643 21.4416 7.83945C21.6197 8.10246 21.9103 8.32126 22.2515 8.44061C22.2981 8.45719 22.342 8.46603 22.3927 8.45498C22.4379 8.44503 22.4872 8.41741 22.5092 8.38315C22.5517 8.31574 22.5352 8.20855 22.4379 8.17539L22.4365 8.17429Z" fill="white"/>
<path d="M21.8852 7.83384C21.864 7.80304 21.8746 7.82284 21.8852 7.83384V7.83384Z" fill="white"/>
<path d="M22.7325 7.48252L22.7024 7.45047C22.6777 7.43058 22.6489 7.41732 22.616 7.41069C22.5845 7.40185 22.5516 7.393 22.5201 7.38416C22.4954 7.37864 22.4721 7.37753 22.4475 7.38195C22.4228 7.38195 22.3995 7.38858 22.3776 7.39964C22.3543 7.40958 22.3351 7.42284 22.3214 7.44052C22.3049 7.45599 22.2926 7.47368 22.2871 7.49357C22.2858 7.50683 22.283 7.51898 22.2816 7.53225C22.2816 7.55877 22.2899 7.58418 22.3063 7.60739C22.3159 7.61844 22.3269 7.62949 22.3365 7.63944C22.3611 7.65933 22.3899 7.67259 22.4228 7.67922C22.4543 7.68806 22.4872 7.6969 22.5187 7.70574C22.5434 7.71127 22.5667 7.71237 22.5914 7.70795C22.616 7.70795 22.6393 7.70132 22.6613 7.69027C22.6846 7.68033 22.7038 7.66707 22.7175 7.64938C22.7339 7.63391 22.7462 7.61623 22.7517 7.59634C22.7545 7.58308 22.7558 7.57092 22.7572 7.55766C22.7572 7.53114 22.749 7.50572 22.7325 7.48252Z" fill="white"/>
<path d="M25.368 4.73306C25.331 4.70543 25.2913 4.69438 25.2433 4.68996C25.2461 4.68996 25.2502 4.68996 25.2529 4.68996C25.1323 4.6767 25.0144 4.65239 24.9021 4.61703C24.8623 4.60266 24.8226 4.5883 24.7842 4.57282C24.6965 4.53525 24.5731 4.55514 24.5265 4.63029C24.4813 4.70212 24.5046 4.79826 24.5978 4.83915C24.7979 4.92535 25.0117 4.97507 25.2365 4.99497C25.2817 4.99939 25.3393 4.97507 25.3708 4.95076C25.4037 4.92424 25.4283 4.88114 25.4256 4.84246C25.4229 4.80268 25.4078 4.76179 25.3708 4.73417L25.368 4.73306Z" fill="white"/>
<path d="M22.2597 4.70654C21.743 4.65129 21.2853 4.46121 20.9358 4.15732C20.8659 4.09654 20.7385 4.10096 20.6686 4.15732C20.5932 4.2181 20.5987 4.31203 20.6686 4.37281C21.0578 4.71207 21.595 4.94082 22.1638 5.0016C22.2652 5.01265 22.3666 4.9795 22.3954 4.8922C22.4187 4.82037 22.3625 4.71649 22.2597 4.70544V4.70654Z" fill="white"/>
<path d="M19.7956 6.27355C19.7873 6.24703 19.7709 6.22382 19.7462 6.20393C19.6242 6.08679 19.4557 6.0028 19.2748 5.95639C19.2309 5.94534 19.172 5.95308 19.1336 5.97076C19.0925 5.98954 19.0541 6.02712 19.0445 6.06469C19.0349 6.10226 19.0363 6.14536 19.0623 6.17851C19.0897 6.21388 19.1281 6.23819 19.1788 6.25034C19.1912 6.25366 19.2021 6.25697 19.2145 6.26029C19.2693 6.27908 19.32 6.30339 19.368 6.33101C19.4077 6.35754 19.4447 6.38627 19.479 6.41832C19.5091 6.44705 19.5681 6.46252 19.6133 6.46252C19.6585 6.46252 19.7147 6.44594 19.7476 6.41832C19.7805 6.38958 19.8052 6.35091 19.8024 6.31002C19.801 6.29676 19.7983 6.2846 19.7969 6.27134L19.7956 6.27355Z" fill="white"/>
<path d="M19.5269 6.8493C19.5146 6.84598 19.5036 6.84156 19.4913 6.83825C19.4694 6.83051 19.4475 6.82278 19.4255 6.81504C19.3789 6.79847 19.3337 6.77968 19.2898 6.76089C19.2035 6.72332 19.1185 6.68133 19.039 6.63491C19.0308 6.62939 19.0212 6.62497 19.013 6.61944C19.0103 6.61834 18.9993 6.6106 18.9924 6.60729C18.9883 6.60508 18.9842 6.60176 18.9828 6.60176C18.9719 6.59513 18.9623 6.5885 18.9513 6.58187C18.9143 6.55756 18.8787 6.53214 18.8431 6.50562C18.7691 6.45036 18.6992 6.39069 18.6347 6.3277C18.5717 6.26582 18.4319 6.27024 18.3675 6.3277C18.2935 6.3929 18.299 6.47799 18.3675 6.54319C18.6512 6.81615 19.0212 7.01948 19.4324 7.14546C19.5256 7.17419 19.6434 7.1112 19.664 7.03606C19.6873 6.94765 19.6284 6.88024 19.5283 6.8493H19.5269Z" fill="white"/>
<path d="M25.7367 12.6996C25.7285 12.6731 25.712 12.6499 25.6873 12.63C25.6339 12.5957 25.5804 12.5604 25.527 12.5261C25.5092 12.5106 25.4886 12.4996 25.4639 12.4941C25.442 12.4852 25.4187 12.4808 25.3927 12.4819C25.368 12.4819 25.3433 12.4852 25.3214 12.4941C25.2967 12.5007 25.2762 12.5106 25.2584 12.5261L25.2282 12.5582C25.2118 12.5814 25.2036 12.6068 25.2036 12.6333C25.2049 12.6466 25.2077 12.6587 25.209 12.672C25.2173 12.6985 25.2337 12.7217 25.2584 12.7416C25.3118 12.7759 25.3653 12.8112 25.4187 12.8455C25.4365 12.8609 25.4571 12.872 25.4818 12.8775C25.5037 12.8864 25.527 12.8908 25.553 12.8897C25.5777 12.8897 25.6024 12.8864 25.6243 12.8775C25.649 12.8709 25.6695 12.8609 25.6873 12.8455C25.6969 12.8344 25.7079 12.8234 25.7175 12.8134C25.7339 12.7902 25.7422 12.7648 25.7422 12.7383L25.7367 12.6996Z" fill="white"/>
<path d="M27.1922 10.2585C27.1839 10.232 27.1675 10.2088 27.1428 10.1889C27.1058 10.1502 27.0606 10.1215 27.0126 10.0916C26.9647 10.0629 26.9126 10.0441 26.8564 10.0264C26.8317 10.0209 26.8084 10.0198 26.7838 10.0242C26.7591 10.0242 26.7358 10.0308 26.7139 10.0419C26.6906 10.0518 26.6714 10.0651 26.6577 10.0828C26.6412 10.0983 26.6289 10.1159 26.6234 10.1358C26.6138 10.1734 26.6152 10.2165 26.6412 10.2496L26.6714 10.2817C26.6947 10.3005 26.7221 10.3126 26.7522 10.3193C26.7399 10.3148 26.7276 10.3115 26.7152 10.3071C26.744 10.3171 26.7714 10.3292 26.7975 10.3425C26.8249 10.3613 26.8509 10.3812 26.8728 10.4033C26.8907 10.4187 26.9112 10.4298 26.9359 10.4353C26.9578 10.4441 26.9811 10.4486 27.0072 10.4475C27.0318 10.4475 27.0565 10.4441 27.0784 10.4353C27.1031 10.4287 27.1236 10.4187 27.1415 10.4033L27.1716 10.3712C27.1881 10.348 27.1963 10.3226 27.1963 10.2961C27.1949 10.2828 27.1922 10.2706 27.1908 10.2574L27.1922 10.2585Z" fill="white"/>
<path d="M33.8501 13.4334C33.8227 13.3991 33.7843 13.3715 33.7336 13.3616C33.6048 13.335 33.4773 13.3085 33.3485 13.282C33.3019 13.272 33.2484 13.2776 33.2073 13.2975C33.1662 13.3163 33.1278 13.3538 33.1182 13.3914C33.1086 13.429 33.11 13.4721 33.136 13.5052C33.1634 13.5395 33.2018 13.5671 33.2525 13.5771C33.3814 13.6036 33.5088 13.6301 33.6376 13.6566C33.6842 13.6666 33.7377 13.661 33.7788 13.6411C33.8199 13.6224 33.8583 13.5848 33.8679 13.5472C33.8775 13.5096 33.8761 13.4665 33.8501 13.4334Z" fill="white"/>
<path d="M34.4572 14.0843C34.4038 14.0147 34.29 13.9837 34.1996 14.0268C34.168 14.0423 34.1351 14.0555 34.1023 14.0688C34.0872 14.0743 34.0721 14.081 34.057 14.0854C34.0474 14.0876 34.0351 14.0909 34.0324 14.092C33.9679 14.1097 33.9008 14.1241 33.8323 14.1329C33.8268 14.1329 33.8199 14.134 33.8145 14.1351C33.798 14.1351 33.7802 14.1373 33.7637 14.1384C33.7295 14.1406 33.6952 14.1406 33.661 14.1406C33.6281 14.1406 33.5897 14.1417 33.5582 14.1351C33.6048 14.1451 33.5431 14.1329 33.5335 14.1318C33.5143 14.1296 33.4951 14.1263 33.4759 14.1218C33.38 14.1042 33.2663 14.1484 33.2443 14.2313C33.2238 14.3097 33.2758 14.3992 33.38 14.418C33.7226 14.4799 34.0858 14.4368 34.3887 14.2942C34.4737 14.2534 34.5148 14.1561 34.46 14.0865L34.4572 14.0843Z" fill="white"/>
<path d="M33.5801 9.92365C33.565 9.88608 33.5362 9.8474 33.491 9.82972C33.3622 9.77888 33.2333 9.72694 33.1045 9.67611C33.0607 9.65843 33.0113 9.65069 32.9634 9.66174C32.9181 9.67169 32.8688 9.69932 32.8469 9.73357C32.8249 9.76783 32.814 9.80983 32.829 9.8474C32.8441 9.88497 32.8729 9.92365 32.9181 9.94133C33.047 9.99216 33.1758 10.0441 33.3046 10.0949C33.3485 10.1126 33.3978 10.1204 33.4458 10.1093C33.491 10.0994 33.5403 10.0717 33.5623 10.0375C33.5842 10.0032 33.5952 9.96122 33.5801 9.92365Z" fill="white"/>
<path d="M31.2982 9.19982L31.2804 9.16335C31.2626 9.13904 31.2393 9.12025 31.2091 9.10589L31.0803 9.05395C31.0583 9.0429 31.0351 9.03737 31.0104 9.03627C30.9857 9.03185 30.9624 9.03295 30.9377 9.03848C30.9131 9.0429 30.8911 9.05174 30.872 9.0661C30.85 9.07715 30.8336 9.09263 30.8213 9.11141C30.8144 9.12357 30.8089 9.13572 30.8021 9.14788C30.7938 9.1733 30.7938 9.19982 30.8021 9.22524C30.8089 9.23739 30.8144 9.24955 30.8213 9.2617C30.8391 9.28602 30.8624 9.3048 30.8925 9.31917L31.0213 9.37111C31.0433 9.38216 31.0666 9.38768 31.0912 9.38879C31.1159 9.39321 31.1392 9.3921 31.1639 9.38658C31.1885 9.38216 31.2105 9.37332 31.2297 9.35895C31.2516 9.3479 31.268 9.33243 31.2804 9.31364C31.2859 9.30149 31.2927 9.28933 31.2982 9.27717C31.3064 9.25176 31.3064 9.22524 31.2982 9.19982Z" fill="white"/>
<path d="M16.4611 3.6976C16.224 3.89983 15.9486 4.0678 15.6717 4.23246C15.425 4.37944 15.1509 4.54962 14.8289 4.55183C14.5849 4.55404 14.5849 4.85904 14.8289 4.85683C15.2112 4.85462 15.536 4.68886 15.8348 4.51205C16.1473 4.32639 16.4611 4.14074 16.7284 3.91309C16.8956 3.77054 16.6283 3.55394 16.4611 3.6976Z" fill="white"/>
<path d="M29.4521 11.3149C29.437 11.2752 29.4069 11.2431 29.363 11.221C29.2356 11.1569 29.0821 11.1238 28.9327 11.1249C28.8834 11.1249 28.8326 11.1415 28.7984 11.1691C28.7641 11.1967 28.7408 11.2387 28.7436 11.2774C28.7463 11.3172 28.7614 11.358 28.7984 11.3857C28.8354 11.4133 28.8806 11.431 28.9327 11.4299C28.9519 11.4299 28.9724 11.431 28.9916 11.4332C29.0286 11.4387 29.0656 11.4465 29.1013 11.4564C29.1273 11.4652 29.152 11.4752 29.1766 11.4873C29.2164 11.5072 29.274 11.5117 29.3178 11.5017C29.363 11.4918 29.4124 11.4641 29.4343 11.4299C29.4562 11.3956 29.4672 11.3536 29.4521 11.3161V11.3149Z" fill="white"/>
<path d="M28.3982 13.2057C28.194 13.1549 27.9788 13.1295 27.765 13.1317C27.6664 13.1317 27.5718 13.2013 27.5759 13.2842C27.58 13.366 27.6595 13.4378 27.765 13.4367C27.8445 13.4367 27.924 13.44 28.0021 13.4466C28.1035 13.4588 28.2036 13.4754 28.3023 13.5008C28.3968 13.5251 28.5133 13.4698 28.5339 13.3914C28.5558 13.3074 28.4996 13.23 28.3982 13.2046V13.2057Z" fill="white"/>
<path d="M29.2356 13.4699C29.2301 13.4577 29.2232 13.4455 29.2178 13.4334C29.2 13.4091 29.1767 13.3903 29.1465 13.3759C29.1259 13.3671 29.1054 13.3594 29.0848 13.3516C29.0629 13.3406 29.0396 13.335 29.0149 13.3339C28.9903 13.3295 28.967 13.3306 28.9423 13.3361C28.9176 13.3406 28.8957 13.3494 28.8765 13.3638C28.8546 13.3748 28.8381 13.3903 28.8258 13.4091C28.8203 13.4212 28.8135 13.4334 28.808 13.4455C28.7998 13.471 28.7998 13.4975 28.808 13.5229C28.8135 13.5351 28.8203 13.5472 28.8258 13.5594C28.8436 13.5837 28.8669 13.6025 28.8971 13.6168C28.9176 13.6246 28.9382 13.6334 28.9587 13.6411C28.9807 13.6522 29.004 13.6577 29.0286 13.6588C29.0533 13.6632 29.0766 13.6621 29.1013 13.6566C29.1259 13.6522 29.1479 13.6434 29.1671 13.629C29.189 13.6179 29.2054 13.6025 29.2178 13.5837C29.2232 13.5715 29.2301 13.5594 29.2356 13.5472C29.2438 13.5218 29.2438 13.4953 29.2356 13.4699Z" fill="white"/>
<path d="M12.7937 22.2486C12.7882 22.2287 12.7772 22.2111 12.7594 22.1956C12.7457 22.1779 12.7265 22.1646 12.7032 22.1547C12.6607 22.137 12.6087 22.1282 12.5621 22.1392C12.5141 22.1514 12.4702 22.1746 12.4456 22.2111C12.3976 22.2807 12.3496 22.3514 12.3017 22.421C12.2784 22.4553 12.2715 22.4973 12.2838 22.5348C12.2893 22.5547 12.3003 22.5724 12.3181 22.5879C12.3318 22.6056 12.351 22.6188 12.3743 22.6288C12.4168 22.6465 12.4689 22.6553 12.5155 22.6431C12.5634 22.631 12.6073 22.6078 12.632 22.5713C12.6799 22.5017 12.7279 22.431 12.7759 22.3614C12.7992 22.3271 12.806 22.2851 12.7937 22.2475V22.2486Z" fill="white"/>
<path d="M35.777 19.1423C35.4344 19.2229 35.1041 19.3367 34.8026 19.4892C34.4901 19.6473 34.2228 19.8451 33.9556 20.0484C33.702 20.2418 33.4348 20.4407 33.099 20.5369C32.9784 20.5711 32.8564 20.5932 32.7317 20.6076C32.5906 20.5579 32.4494 20.5115 32.3041 20.4695C31.2379 20.1589 30.11 20.0882 28.9889 20.2031C28.3763 20.2661 27.7719 20.3766 27.1743 20.5026C26.8728 20.5667 26.5727 20.633 26.2739 20.7026C26.0615 20.7524 25.8367 20.8264 25.701 20.9756C25.6394 21.0441 25.6037 21.1259 25.6092 21.2121C25.6161 21.3226 25.6997 21.4033 25.7531 21.4994C25.8518 21.674 25.7984 21.8818 25.6901 22.0442C25.4365 22.4266 24.8883 22.5912 24.4279 22.7647C23.3013 23.1891 22.2926 23.809 21.4854 24.5715C21.4785 24.5771 21.4744 24.5837 21.4703 24.5892C21.458 24.5936 21.4456 24.5981 21.4333 24.6036C21.2181 24.6964 21.4059 24.9616 21.6211 24.8688C21.8061 24.7892 22.0144 24.8003 22.2172 24.8091C22.4584 24.8202 22.6983 24.8268 22.9395 24.8213C23.4109 24.8113 23.881 24.7682 24.3484 24.7163C25.2364 24.6157 26.1204 24.4842 26.9962 24.3284C28.7532 24.0146 30.4814 23.5913 32.1589 23.0653C32.8633 22.8443 33.5595 22.6056 34.2448 22.3492C34.4394 22.4531 34.634 22.5581 34.8327 22.6586C34.9273 22.7061 35.0314 22.6642 35.0904 22.6012C35.496 22.1669 35.6701 21.632 35.7838 21.1049C35.9181 20.4871 36.0237 19.8661 36.1333 19.245C36.1662 19.0627 35.8387 18.982 35.7756 19.14L35.777 19.1423Z" fill="white"/>
<path d="M29.7824 38.0403C23.8016 38.4381 19.0555 38.0922 16.7503 37.8491C16.7243 37.8458 16.6996 37.8436 16.6736 37.8414C16.2323 37.7927 15.8842 37.7508 15.6402 37.7187C15.6292 37.7187 15.6197 37.7154 15.6101 37.7143C15.3565 37.6811 15.2249 37.6601 15.2249 37.6601L15.373 36.733L15.3784 36.6965L15.9719 32.9558L16.2583 31.1446L16.2857 30.9777V30.9655L16.3186 30.7666C16.5447 30.7246 16.7681 30.6849 16.9902 30.644C17.6644 30.5224 18.3182 30.4064 18.95 30.2959C18.9623 30.2959 18.976 30.2925 18.987 30.2892C19.7462 30.1588 20.4753 30.0362 21.1674 29.9235C21.3799 29.8881 21.5896 29.8538 21.7938 29.8207C22.3242 29.7356 22.8312 29.6549 23.3109 29.5809C26.8413 29.035 29.0095 28.783 29.0095 28.783L29.1027 29.9124L29.1972 31.0385L29.7811 38.0392L29.7824 38.0403Z" fill="white"/>
<path d="M39.3581 17.8382C39.2334 17.615 39.0594 17.4117 38.9209 17.1951C38.6318 16.742 38.5029 16.2392 38.37 15.7452C38.3056 15.5043 38.2398 15.2623 38.1562 15.0247C38.0795 14.8048 37.9986 14.5539 37.8492 14.3572C37.7067 14.1683 37.4408 14.0788 37.2188 14.2423C37.0228 14.386 36.8625 14.5816 36.7185 14.7595C36.4294 15.1175 36.2156 15.5176 36.0799 15.9298C35.7674 16.879 35.8702 17.9057 36.4033 18.7919C35.6496 19.5887 35.0123 20.4496 34.5093 21.3679C33.4417 21.7602 32.2274 21.6917 31.0844 21.7757C29.7756 21.8718 28.5503 22.2741 27.3155 22.6122C26.1109 22.9426 24.887 23.2476 23.7166 23.6521C22.6503 24.0212 21.6183 24.5019 20.8235 25.1937C20.0697 25.8501 19.5256 26.6833 19.4529 27.5818C18.8952 27.3331 18.3387 27.0812 17.785 26.827C17.5754 26.9165 17.3342 26.9519 17.0998 26.9729C16.9874 26.9828 16.875 26.9883 16.7613 26.9939C16.7339 26.995 16.7065 26.9972 16.6791 26.9994C16.6612 27.0016 16.642 27.0049 16.6242 27.006C16.7394 28.0592 16.7256 29.1189 16.5831 30.1699C16.568 30.2782 16.7133 30.3301 16.8202 30.318C19.5927 29.9953 22.4516 29.9422 25.2324 30.2273C25.9615 30.3025 26.6933 30.4251 27.3512 30.7003C27.5252 30.7732 27.6814 30.6152 27.6211 30.5036C27.5924 30.171 27.5883 29.8384 27.6088 29.5068C28.2146 29.1731 28.8861 28.9178 29.5577 28.6813C30.3868 28.3896 31.2187 28.1034 32.0355 27.7873C33.6555 27.1596 35.2302 26.4435 36.6678 25.5705C37.4682 25.0843 38.2261 24.5538 38.9182 23.9693C38.9538 23.9394 38.9689 23.9063 38.9703 23.8731C38.995 23.8499 39.0114 23.8201 39.0155 23.7836C39.1457 22.6211 39.2745 21.4596 39.4047 20.2971C39.4376 20.002 39.4705 19.7081 39.5034 19.413C39.5349 19.1345 39.5774 18.8549 39.5651 18.5742C39.5541 18.3179 39.4883 18.0725 39.3568 17.8394L39.3581 17.8382Z" fill="#01B7F1"/>
<path d="M38.6592 16.6392C38.6098 16.5685 38.4892 16.5387 38.4015 16.5818C38.3576 16.6028 38.3631 16.6017 38.322 16.6105C38.3179 16.6105 38.2919 16.616 38.2864 16.6171C38.2727 16.6182 38.259 16.6193 38.2453 16.6193C38.2288 16.6193 38.2124 16.6193 38.1959 16.6182C38.1603 16.616 38.1973 16.6205 38.1644 16.6138C38.1452 16.6094 38.1247 16.6061 38.1055 16.6017C38.1055 16.6017 38.0726 16.5928 38.0698 16.5928C38.0369 16.5818 38.0054 16.5674 37.9753 16.553C37.9629 16.5475 37.952 16.5409 37.9396 16.5343C37.9369 16.532 37.9136 16.5166 37.9095 16.5144C37.8451 16.468 37.8053 16.4293 37.7642 16.3773C37.6751 16.2679 37.6121 16.1453 37.5559 16.0314C37.4792 15.8745 37.4038 15.7187 37.327 15.5618C37.29 15.4855 37.2023 15.4303 37.0954 15.4524C37.005 15.4712 36.9227 15.5618 36.9597 15.6391C37.0447 15.8126 37.1269 15.9861 37.2133 16.1596C37.2928 16.3188 37.3764 16.4735 37.5066 16.6094C37.7519 16.8669 38.2137 17.0282 38.5879 16.8459C38.6756 16.8039 38.7112 16.7111 38.6592 16.6381V16.6392Z" fill="white"/>
<path d="M20.3109 26.0269C20.3451 26.0004 20.3657 25.9573 20.3657 25.9186C20.3657 25.88 20.3451 25.8369 20.3109 25.8103C20.2752 25.7838 20.2273 25.7639 20.1765 25.7661C20.1258 25.7683 20.0806 25.7816 20.0422 25.8103C19.9257 25.8998 19.8408 26.0192 19.8038 26.1452C19.7928 26.1827 19.7983 26.2247 19.8216 26.259C19.8449 26.2921 19.8915 26.3231 19.9381 26.3308C19.9847 26.3386 20.0381 26.3375 20.0792 26.3165C20.1217 26.2944 20.1574 26.2623 20.1683 26.2225C20.1738 26.2015 20.1834 26.1816 20.1916 26.1617C20.2081 26.1319 20.2286 26.1032 20.2519 26.0756C20.2697 26.0579 20.2876 26.0413 20.3081 26.0258L20.3109 26.0269Z" fill="white"/>
<path d="M37.4161 14.1296C36.9515 14.2224 36.5746 14.6247 36.3389 14.9385C36.0771 15.2855 35.9099 15.68 35.8236 16.079C35.6235 17.005 35.8496 17.9399 36.0813 18.8472C36.073 18.8527 36.0634 18.8571 36.0566 18.8627C35.7893 19.0505 35.6057 19.3379 35.4234 19.5788C35.0123 20.1203 34.6573 20.6894 34.3599 21.2773C34.3215 21.3546 34.3339 21.4397 34.4312 21.4861C34.5107 21.5237 34.6504 21.5049 34.6888 21.4287C34.9643 20.8839 35.2877 20.3556 35.6619 19.8506C35.8332 19.6185 36.0031 19.3633 36.2238 19.161C36.3238 19.0693 36.4335 19.0085 36.5856 18.9898C36.7583 18.9688 36.9296 18.9754 37.0968 18.929C37.327 18.8649 37.2311 18.5698 37.0009 18.6339C36.835 18.6803 36.661 18.6715 36.4897 18.6947C36.4691 18.698 36.4513 18.7024 36.4307 18.7057C36.2238 17.8979 36.0182 17.0603 36.1731 16.2359C36.2402 15.8789 36.3691 15.5275 36.5815 15.2093C36.6856 15.0523 36.809 14.9043 36.9543 14.7705C37.1036 14.6346 37.2846 14.47 37.5107 14.4247C37.7478 14.3771 37.6518 14.0821 37.4148 14.1296H37.4161Z" fill="white"/>
<path d="M34.4202 21.2198C30.5088 21.6011 26.7358 22.6343 23.093 23.8101C22.5996 23.9693 22.1172 24.145 21.6786 24.3892C21.2661 24.6202 20.8947 24.8942 20.574 25.207C20.4205 25.3573 20.6864 25.575 20.8412 25.4225C21.4292 24.8478 22.1665 24.4478 23.0149 24.1616C23.8975 23.8643 24.8006 23.5991 25.6997 23.3361C27.4964 22.8111 29.3205 22.3404 31.1817 21.9912C32.2493 21.7911 33.3293 21.6309 34.4174 21.5248C34.6573 21.5016 34.66 21.1955 34.4174 21.2198H34.4202Z" fill="white"/>
<path d="M15.5854 30.9313L10.6132 36.102C10.6132 36.102 3.29606 32.4618 0 25.8413L4.11288 23.094L4.96122 22.5271C4.96122 22.5271 5.30111 23.0697 6.00006 23.9273C6.02473 23.9549 6.04666 23.9847 6.07133 24.0135C6.39203 24.4036 6.78262 24.8544 7.24585 25.3462C7.85435 25.9905 8.58346 26.7054 9.44139 27.4436C9.64149 27.6149 9.84843 27.7895 10.0636 27.9641C10.6625 28.4537 11.3176 28.9488 12.0275 29.4383L13.3734 29.4162L14.4972 28.7565L15.5881 30.9313H15.5854Z" fill="white"/>
<path d="M44 16.5111C43.7383 16.4094 43.5354 16.2259 43.3984 16.0193C43.2613 15.8126 43.1887 15.5828 43.138 15.3518C43.0996 15.1794 43.0585 14.9883 43.0462 14.8125C43.0133 15.1618 42.9187 15.5132 42.7049 15.8193C42.4911 16.1243 42.1498 16.3818 41.7318 16.4801C42.1142 16.6249 42.3979 16.9233 42.5788 17.2316C42.7597 17.5399 42.8392 17.8803 42.8748 18.2206C42.9461 17.8924 43.042 17.562 43.2106 17.2581C43.3792 16.9542 43.6451 16.6835 43.9987 16.5111H44Z" fill="white"/>
<path d="M33.7856 32.7856C33.5239 32.6839 33.321 32.5005 33.184 32.2938C33.0483 32.0872 32.9743 31.8573 32.9236 31.6264C32.8852 31.454 32.8441 31.2628 32.8318 31.0871C32.7989 31.4363 32.7043 31.7877 32.4905 32.0938C32.2767 32.3988 31.9355 32.6563 31.5175 32.7547C31.8998 32.8994 32.1835 33.1978 32.3644 33.5061C32.5453 33.8144 32.6248 34.1548 32.6605 34.4952C32.7317 34.167 32.8277 33.8365 32.9962 33.5326C33.1648 33.2276 33.4307 32.958 33.7843 32.7856H33.7856Z" fill="white"/>
<path d="M4.40754 14.996C4.05669 14.8601 3.78396 14.6136 3.60031 14.3363C3.41803 14.0589 3.31936 13.7506 3.25083 13.4411C3.20012 13.2091 3.14393 12.9538 3.12749 12.7184C3.08226 13.187 2.95617 13.6588 2.66974 14.0688C2.3833 14.4788 1.92419 14.8225 1.36502 14.9551C1.87896 15.1496 2.25722 15.5496 2.50117 15.9629C2.74512 16.3762 2.85065 16.8337 2.89861 17.289C2.99455 16.8481 3.12338 16.4061 3.34951 15.9972C3.57564 15.5883 3.93197 15.2258 4.40754 14.9949V14.996Z" fill="white"/>
<path d="M0.463206 11.6255C-0.15489 11.6255 -0.15489 12.399 0.463206 12.399C1.0813 12.399 1.0813 11.6255 0.463206 11.6255Z" fill="white"/>
<path d="M38.6824 27.8934C38.2411 27.8934 38.2411 28.446 38.6824 28.446C39.1237 28.446 39.1237 27.8934 38.6824 27.8934Z" fill="white"/>
<path d="M7.67756 5.91772C7.23626 5.91772 7.23626 6.47027 7.67756 6.47027C8.11887 6.47027 8.11887 5.91772 7.67756 5.91772Z" fill="white"/>
<path d="M23.4548 39.6736C23.0135 39.6736 23.0135 40.2261 23.4548 40.2261C23.8961 40.2261 23.8961 39.6736 23.4548 39.6736Z" fill="white"/>
<path d="M40.46 12.0089C40.4408 11.9515 40.4052 11.9006 40.3531 11.8587C40.3257 11.8366 40.2983 11.8145 40.2708 11.7924C40.2325 11.7592 40.1872 11.736 40.1338 11.7227C40.0858 11.7028 40.0351 11.694 39.9803 11.6962C39.9255 11.6951 39.8748 11.7039 39.8268 11.7227C39.7734 11.736 39.7281 11.7592 39.6898 11.7924C39.6678 11.8156 39.6445 11.8399 39.6226 11.8631C39.587 11.9139 39.5692 11.9681 39.5692 12.0266C39.5733 12.0543 39.5787 12.083 39.5829 12.1106C39.602 12.1681 39.6377 12.2189 39.6898 12.2609C39.7172 12.283 39.7446 12.3051 39.772 12.3272C39.8104 12.3604 39.8556 12.3836 39.909 12.3968C39.957 12.4167 40.0077 12.4256 40.0625 12.4234C40.1174 12.4245 40.1681 12.4156 40.216 12.3968C40.2695 12.3836 40.3147 12.3604 40.3531 12.3272C40.375 12.304 40.3983 12.2797 40.4202 12.2565C40.4559 12.2057 40.4737 12.1515 40.4737 12.0929L40.46 12.0089Z" fill="white"/>
<path d="M1.80495 22.3138C1.78576 22.2564 1.75013 22.2056 1.69805 22.1636C1.67064 22.1415 1.64323 22.1194 1.61582 22.0973C1.57745 22.0641 1.53222 22.0409 1.47877 22.0276C1.4308 22.0077 1.38009 21.9989 1.32527 22.0011C1.27045 22 1.21975 22.0088 1.17178 22.0276C1.11833 22.0409 1.0731 22.0641 1.03473 22.0973C1.0128 22.1205 0.989501 22.1448 0.967573 22.168C0.93194 22.2188 0.914124 22.273 0.914124 22.3315C0.918235 22.3592 0.923717 22.3879 0.927829 22.4155C0.947016 22.473 0.982649 22.5238 1.03473 22.5658C1.06214 22.5879 1.08955 22.61 1.11696 22.6321C1.15533 22.6653 1.20056 22.6885 1.25401 22.7017C1.30198 22.7216 1.35268 22.7305 1.4075 22.7283C1.46232 22.7294 1.51303 22.7205 1.561 22.7017C1.61445 22.6885 1.65968 22.6653 1.69805 22.6321C1.71998 22.6089 1.74328 22.5846 1.76521 22.5614C1.80084 22.5106 1.81866 22.4564 1.81866 22.3978L1.80495 22.3138Z" fill="white"/>
</g>
<defs>
<clipPath id="clip0_50_159">
<rect width="44" height="44" fill="white"/>
</clipPath>
</defs>
</svg>
