<svg width="22" height="22" viewBox="0 0 22 22" fill="none" xmlns="http://www.w3.org/2000/svg">
<path d="M12.375 3.73519C12.375 2.77406 11.1774 2.33544 10.5566 3.06831L7.74744 6.38894C7.61835 6.54127 7.45763 6.66366 7.27645 6.7476C7.09527 6.83154 6.89799 6.87502 6.69831 6.875H4.125C3.39565 6.875 2.69618 7.16473 2.18046 7.68045C1.66473 8.19618 1.375 8.89565 1.375 9.625V12.375C1.375 13.1043 1.66473 13.8038 2.18046 14.3195C2.69618 14.8353 3.39565 15.125 4.125 15.125H6.69831C6.89804 15.1251 7.09536 15.1686 7.27654 15.2527C7.45772 15.3368 7.61841 15.4593 7.74744 15.6117L10.5566 18.9317C11.1767 19.6646 12.375 19.2259 12.375 18.2648V3.73519ZM14.7352 6.3085C14.8096 6.25732 14.8934 6.22131 14.9817 6.20253C15.0701 6.18374 15.1613 6.18255 15.2501 6.19903C15.3389 6.2155 15.4236 6.24931 15.4993 6.29853C15.5751 6.34775 15.6404 6.41141 15.6915 6.48587C16.6987 7.95025 17.2301 9.45862 17.2301 11C17.2301 12.5414 16.6987 14.0497 15.6915 15.5148C15.6408 15.5902 15.5756 15.6548 15.4998 15.7048C15.4239 15.7549 15.3389 15.7894 15.2497 15.8064C15.1604 15.8234 15.0687 15.8226 14.9797 15.8039C14.8908 15.7852 14.8065 15.7491 14.7316 15.6976C14.6567 15.6461 14.5928 15.5803 14.5435 15.504C14.4942 15.4276 14.4605 15.3423 14.4444 15.2528C14.4283 15.1634 14.4301 15.0717 14.4497 14.9829C14.4693 14.8942 14.5063 14.8102 14.5585 14.7359C15.4419 13.4502 15.8558 12.2086 15.8558 11C15.8558 9.79137 15.4419 8.54975 14.5585 7.26481C14.4554 7.11455 14.4161 6.92948 14.4494 6.75028C14.4826 6.57108 14.5857 6.41243 14.7359 6.30919M17.6626 3.62794C17.5972 3.56564 17.5202 3.51683 17.436 3.48429C17.3517 3.45175 17.2619 3.43612 17.1717 3.43829C17.0814 3.44046 16.9924 3.46039 16.9099 3.49694C16.8273 3.53349 16.7527 3.58595 16.6904 3.65131C16.6281 3.71668 16.5793 3.79367 16.5468 3.8779C16.5143 3.96213 16.4986 4.05194 16.5008 4.14222C16.503 4.23249 16.5229 4.32144 16.5594 4.40401C16.596 4.48658 16.6484 4.56114 16.7138 4.62344C18.3549 6.18612 19.2081 8.569 19.2081 11.0007C19.2081 13.4331 18.3549 15.8152 16.7138 17.3779C16.6484 17.4402 16.596 17.5148 16.5594 17.5974C16.5229 17.6799 16.503 17.7689 16.5008 17.8592C16.4986 17.9494 16.5143 18.0392 16.5468 18.1235C16.5793 18.2077 16.6281 18.2847 16.6904 18.3501C16.7527 18.4154 16.8273 18.4679 16.9099 18.5044C16.9924 18.541 17.0814 18.5609 17.1717 18.5631C17.2619 18.5653 17.3517 18.5496 17.436 18.5171C17.5202 18.4845 17.5972 18.4357 17.6626 18.3734C19.6309 16.4986 20.5824 13.7252 20.5824 11.0007C20.5824 8.27612 19.6309 5.50206 17.6619 3.62725" fill="#01B7F1"/>
</svg>
