<svg width="25" height="25" viewBox="0 0 25 25" fill="none" xmlns="http://www.w3.org/2000/svg">
<path d="M12.25 15.2163C13.9069 15.2163 15.25 13.8732 15.25 12.2163C15.25 10.5595 13.9069 9.21631 12.25 9.21631C10.5931 9.21631 9.25 10.5595 9.25 12.2163C9.25 13.8732 10.5931 15.2163 12.25 15.2163Z" stroke="#A1A1A1" stroke-width="1.5"/>
<path d="M14.015 2.36831C13.648 2.21631 13.182 2.21631 12.25 2.21631C11.318 2.21631 10.852 2.21631 10.485 2.36831C10.2422 2.46882 10.0215 2.6162 9.83572 2.80203C9.64989 2.98786 9.50251 3.20849 9.40199 3.45131C9.30999 3.67431 9.27299 3.93531 9.25899 4.31431C9.25276 4.5883 9.17699 4.85621 9.0388 5.09288C8.90062 5.32955 8.70454 5.52721 8.46899 5.66731C8.22989 5.80135 7.96064 5.87241 7.68653 5.87381C7.41242 5.87521 7.14245 5.8069 6.90199 5.67531C6.56599 5.49731 6.32299 5.39931 6.08199 5.36731C5.55631 5.29818 5.02469 5.44062 4.60399 5.76331C4.28999 6.00631 4.05599 6.40931 3.58999 7.21631C3.12399 8.02331 2.88999 8.42631 2.83899 8.82131C2.80463 9.08176 2.82191 9.34643 2.88986 9.6002C2.95781 9.85397 3.07508 10.0919 3.23499 10.3003C3.38299 10.4923 3.58999 10.6533 3.91099 10.8553C4.38399 11.1523 4.68799 11.6583 4.68799 12.2163C4.68799 12.7743 4.38399 13.2803 3.91099 13.5763C3.58999 13.7793 3.38199 13.9403 3.23499 14.1323C3.07508 14.3407 2.95781 14.5786 2.88986 14.8324C2.82191 15.0862 2.80463 15.3509 2.83899 15.6113C2.89099 16.0053 3.12399 16.4093 3.58899 17.2163C4.05599 18.0233 4.28899 18.4263 4.60399 18.6693C4.81243 18.8292 5.05033 18.9465 5.3041 19.0144C5.55787 19.0824 5.82254 19.0997 6.08299 19.0653C6.32299 19.0333 6.56599 18.9353 6.90199 18.7573C7.14245 18.6257 7.41242 18.5574 7.68653 18.5588C7.96064 18.5602 8.22989 18.6313 8.46899 18.7653C8.95199 19.0453 9.23899 19.5603 9.25899 20.1183C9.27299 20.4983 9.30899 20.7583 9.40199 20.9813C9.50251 21.2241 9.64989 21.4448 9.83572 21.6306C10.0215 21.8164 10.2422 21.9638 10.485 22.0643C10.852 22.2163 11.318 22.2163 12.25 22.2163C13.182 22.2163 13.648 22.2163 14.015 22.0643C14.2578 21.9638 14.4784 21.8164 14.6643 21.6306C14.8501 21.4448 14.9975 21.2241 15.098 20.9813C15.19 20.7583 15.227 20.4983 15.241 20.1183C15.261 19.5603 15.548 19.0443 16.031 18.7653C16.2701 18.6313 16.5394 18.5602 16.8135 18.5588C17.0876 18.5574 17.3575 18.6257 17.598 18.7573C17.934 18.9353 18.177 19.0333 18.417 19.0653C18.6774 19.0997 18.9421 19.0824 19.1959 19.0144C19.4497 18.9465 19.6876 18.8292 19.896 18.6693C20.211 18.4273 20.444 18.0233 20.91 17.2163C21.376 16.4093 21.61 16.0063 21.661 15.6113C21.6954 15.3509 21.6781 15.0862 21.6101 14.8324C21.5422 14.5786 21.4249 14.3407 21.265 14.1323C21.117 13.9403 20.91 13.7793 20.589 13.5773C20.3547 13.4349 20.1605 13.2353 20.0246 12.9972C19.8887 12.7592 19.8155 12.4904 19.812 12.2163C19.812 11.6583 20.116 11.1523 20.589 10.8563C20.91 10.6533 21.118 10.4923 21.265 10.3003C21.4249 10.0919 21.5422 9.85397 21.6101 9.6002C21.6781 9.34643 21.6954 9.08176 21.661 8.82131C21.609 8.42731 21.376 8.02331 20.911 7.21631C20.444 6.40931 20.211 6.00631 19.896 5.76331C19.6876 5.6034 19.4497 5.48612 19.1959 5.41818C18.9421 5.35023 18.6774 5.33294 18.417 5.36731C18.177 5.39931 17.934 5.49731 17.597 5.67531C17.3567 5.80672 17.0869 5.87493 16.813 5.87353C16.539 5.87213 16.27 5.80117 16.031 5.66731C15.7954 5.52721 15.5994 5.32955 15.4612 5.09288C15.323 4.85621 15.2472 4.5883 15.241 4.31431C15.227 3.93431 15.191 3.67431 15.098 3.45131C14.9975 3.20849 14.8501 2.98786 14.6643 2.80203C14.4784 2.6162 14.2578 2.46882 14.015 2.36831Z" stroke="#A1A1A1" stroke-width="1.5"/>
</svg>
