<svg width="25" height="25" viewBox="0 0 25 25" fill="none" xmlns="http://www.w3.org/2000/svg">
<g clip-path="url(#clip0_6_20)">
<path d="M12.25 2.21631C17.773 2.21631 22.25 6.69331 22.25 12.2163C22.25 17.7393 17.773 22.2163 12.25 22.2163C6.727 22.2163 2.25 17.7393 2.25 12.2163C2.25 6.69331 6.727 2.21631 12.25 2.21631ZM12.25 4.21631C10.1283 4.21631 8.09344 5.05916 6.59315 6.55945C5.09285 8.05975 4.25 10.0946 4.25 12.2163C4.25 14.338 5.09285 16.3729 6.59315 17.8732C8.09344 19.3735 10.1283 20.2163 12.25 20.2163C14.3717 20.2163 16.4066 19.3735 17.9069 17.8732C19.4071 16.3729 20.25 14.338 20.25 12.2163C20.25 10.0946 19.4071 8.05975 17.9069 6.55945C16.4066 5.05916 14.3717 4.21631 12.25 4.21631ZM12.25 6.21631C12.4949 6.21634 12.7313 6.30626 12.9144 6.46902C13.0974 6.63178 13.2143 6.85606 13.243 7.09931L13.25 7.21631V11.8023L15.957 14.5093C16.1363 14.6893 16.2405 14.9307 16.2482 15.1847C16.256 15.4386 16.1668 15.686 15.9988 15.8766C15.8307 16.0672 15.5964 16.1866 15.3435 16.2107C15.0906 16.2348 14.838 16.1617 14.637 16.0063L14.543 15.9233L11.543 12.9233C11.3876 12.7678 11.2878 12.5653 11.259 12.3473L11.25 12.2163V7.21631C11.25 6.95109 11.3554 6.69674 11.5429 6.5092C11.7304 6.32167 11.9848 6.21631 12.25 6.21631Z" fill="#A1A1A1"/>
</g>
<defs>
<clipPath id="clip0_6_20">
<rect width="24" height="24" fill="white" transform="translate(0.25 0.216309)"/>
</clipPath>
</defs>
</svg>
