<svg width="44" height="44" viewBox="0 0 44 44" fill="none" xmlns="http://www.w3.org/2000/svg">
<path d="M40.4323 28.3714C37.3018 28.5405 34.184 27.89 31.4577 26.4988C28.7314 25.1076 26.5141 23.0358 25.0754 20.535C23.5734 18.0643 22.9035 15.2553 23.1471 12.4493C23.3907 9.6434 24.5373 6.96138 26.4476 4.72925C26.6932 4.45173 26.843 4.11578 26.8784 3.76279C26.9139 3.40981 26.8335 3.05523 26.6471 2.74277C26.4639 2.43457 26.1855 2.18034 25.8453 2.01056C25.5051 1.84077 25.1176 1.76264 24.7292 1.78552C22.1067 1.9461 19.5517 2.60272 17.232 3.71225C12.6298 6.01269 9.23101 9.85607 7.77993 14.4007C6.32885 18.9453 6.94378 23.8208 9.49004 27.9594C11.8831 32.171 16.0384 35.3599 21.046 36.8278C26.0536 38.2957 31.5054 37.9229 36.2073 35.7911C38.5311 34.6886 40.5688 33.1574 42.1865 31.2981C42.4252 31.0222 42.5702 30.6903 42.6041 30.3424C42.638 29.9944 42.5594 29.645 42.3776 29.3361C42.1936 29.0225 41.9114 28.764 41.5658 28.5926C41.2201 28.4212 40.8261 28.3443 40.4323 28.3714Z" fill="#01B7F1"/>
</svg>
