<svg width="45" height="44" viewBox="0 0 45 44" fill="none" xmlns="http://www.w3.org/2000/svg">
<g clip-path="url(#clip0_300_344)">
<path d="M13.2417 14.7583C12.6 14.7583 12.1496 14.6282 11.8905 14.3678C11.6314 14.1075 11.5012 13.6571 11.5 13.0167C11.5 11.7944 11.7903 10.6639 12.3708 9.62499C12.9514 8.58611 13.7306 7.73055 14.7083 7.05833L22.5 1.83333L30.2917 7.05833C31.2694 7.73055 32.0486 8.58611 32.6292 9.62499C33.2097 10.6639 33.5 11.7944 33.5 13.0167C33.5 13.6583 33.3698 14.1093 33.1095 14.3697C32.8492 14.63 32.3988 14.7596 31.7583 14.7583H13.2417ZM2.33333 38.5V15.9958C1.78333 15.6597 1.34028 15.2246 1.00417 14.6905C0.668056 14.1564 0.5 13.5373 0.5 12.8333C0.5 12.1306 0.866667 11.275 1.6 10.2667C2.33333 9.25833 3.18889 8.28055 4.16667 7.33333C5.14444 8.28055 6 9.25833 6.73333 10.2667C7.46667 11.275 7.83333 12.1306 7.83333 12.8333C7.83333 13.5361 7.66528 14.1552 7.32917 14.6905C6.99306 15.2258 6.55 15.6603 6 15.994V23.8333H9.66667V20.1667C9.66667 19.4028 9.91111 18.6694 10.4 17.9667C10.8889 17.2639 11.5917 16.8056 12.5083 16.5917H32.4917C33.4083 16.8056 34.1111 17.2639 34.6 17.9667C35.0889 18.6694 35.3333 19.4028 35.3333 20.1667V23.8333H39V15.9958C38.45 15.6597 38.0069 15.2246 37.6708 14.6905C37.3347 14.1564 37.1667 13.5373 37.1667 12.8333C37.1667 12.1306 37.5333 11.275 38.2667 10.2667C39 9.25833 39.8556 8.28055 40.8333 7.33333C41.8111 8.28055 42.6667 9.25833 43.4 10.2667C44.1333 11.275 44.5 12.1306 44.5 12.8333C44.5 13.5361 44.3319 14.1552 43.9958 14.6905C43.6597 15.2258 43.2167 15.6603 42.6667 15.994V38.5H26.1667V31.1667C26.1667 30.1583 25.8079 29.2954 25.0905 28.578C24.3731 27.8605 23.5096 27.5012 22.5 27.5C21.4917 27.5 20.6288 27.8593 19.9113 28.578C19.1939 29.2967 18.8346 30.1595 18.8333 31.1667V38.5H2.33333Z" fill="#01B7F1"/>
</g>
<defs>
<clipPath id="clip0_300_344">
<rect width="44" height="44" fill="white" transform="translate(0.5)"/>
</clipPath>
</defs>
</svg>
