<svg width="44" height="44" viewBox="0 0 44 44" fill="none" xmlns="http://www.w3.org/2000/svg">
<path d="M15.8583 36.6667H11C9.99167 36.6667 9.12878 36.3079 8.41133 35.5905C7.69389 34.8731 7.33456 34.0096 7.33333 33V28.1417L3.80417 24.5667C3.46806 24.2 3.20833 23.7954 3.025 23.353C2.84167 22.9106 2.75 22.4596 2.75 22C2.75 21.5417 2.84167 21.0913 3.025 20.6488C3.20833 20.2064 3.46806 19.8012 3.80417 19.4333L7.33333 15.8583V11C7.33333 9.99167 7.69267 9.12878 8.41133 8.41133C9.13 7.69389 9.99289 7.33456 11 7.33333H15.8583L19.4333 3.80417C19.8 3.46806 20.2052 3.20833 20.6488 3.025C21.0925 2.84167 21.5429 2.75 22 2.75C22.4583 2.75 22.9093 2.84167 23.353 3.025C23.7967 3.20833 24.2012 3.46806 24.5667 3.80417L28.1417 7.33333H33C34.0083 7.33333 34.8718 7.69267 35.5905 8.41133C36.3092 9.13 36.6679 9.99289 36.6667 11V15.8583L40.1958 19.4333C40.5319 19.8 40.7917 20.2052 40.975 20.6488C41.1583 21.0925 41.25 21.5429 41.25 22C41.25 22.4583 41.1583 22.9093 40.975 23.353C40.7917 23.7967 40.5319 24.2012 40.1958 24.5667L36.6667 28.1417V33C36.6667 34.0083 36.3079 34.8718 35.5905 35.5905C34.8731 36.3092 34.0096 36.6679 33 36.6667H28.1417L24.5667 40.1958C24.2 40.5319 23.7954 40.7917 23.353 40.975C22.9106 41.1583 22.4596 41.25 22 41.25C21.5417 41.25 21.0913 41.1583 20.6488 40.975C20.2064 40.7917 19.8012 40.5319 19.4333 40.1958L15.8583 36.6667ZM23.8792 21.0833L26.5833 19.1125L29.2417 21.0833L28.1875 17.9667L30.8917 15.9958H27.5917L26.5833 12.8333L25.575 15.9958H22.2292L24.9333 17.9667L23.8792 21.0833ZM22 31.1667C24.5361 31.1667 26.6982 30.2806 28.4863 28.5083C30.2744 26.7361 31.1679 24.5667 31.1667 22C31.1667 21.7556 31.1593 21.5111 31.1447 21.2667C31.13 21.0222 31.0915 20.7778 31.0292 20.5333C30.6931 21.9694 29.9444 23.1538 28.7833 24.0863C27.6222 25.0189 26.2625 25.4846 24.7042 25.4833C22.8708 25.4833 21.3278 24.8569 20.075 23.6042C18.8222 22.3514 18.1958 20.8083 18.1958 18.975C18.1958 17.5694 18.5931 16.3093 19.3875 15.1947C20.1819 14.08 21.2208 13.2929 22.5042 12.8333H22C19.4333 12.8333 17.2639 13.7274 15.4917 15.5155C13.7194 17.3036 12.8333 19.4651 12.8333 22C12.8333 24.5667 13.7194 26.7361 15.4917 28.5083C17.2639 30.2806 19.4333 31.1667 22 31.1667Z" fill="#01B7F1"/>
</svg>
