<svg width="23" height="22" viewBox="0 0 23 22" fill="none" xmlns="http://www.w3.org/2000/svg">
<g clip-path="url(#clip0_199_346)">
<path d="M12.655 3.025C12.7985 2.92237 12.9663 2.85917 13.1419 2.84172C13.3174 2.82426 13.4944 2.85316 13.6553 2.92552C13.8162 2.99788 13.9553 3.11118 14.0586 3.2541C14.162 3.39702 14.2261 3.56457 14.2445 3.74L14.25 3.8445V18.1555C14.2501 18.3319 14.2038 18.5052 14.116 18.6582C14.0281 18.8111 13.9016 18.9384 13.7492 19.0271C13.5967 19.1159 13.4237 19.1632 13.2473 19.1642C13.0709 19.1651 12.8973 19.1198 12.7439 19.0328L12.6559 18.9759L6.62333 14.6667H4.16667C3.70414 14.6668 3.25865 14.4921 2.9195 14.1776C2.58035 13.8631 2.37261 13.4321 2.33792 12.9708L2.33333 12.8333V9.16667C2.33342 8.7043 2.50821 8.25903 2.82268 7.92008C3.13716 7.58112 3.5681 7.37351 4.02917 7.33883L4.16667 7.33333H6.62333L12.655 3.025ZM16.6205 8.40767L17.9167 9.70383L19.2128 8.40767C19.2974 8.32012 19.3985 8.25028 19.5104 8.20224C19.6222 8.1542 19.7425 8.12891 19.8642 8.12785C19.9859 8.1268 20.1066 8.14999 20.2193 8.19608C20.3319 8.24217 20.4343 8.31024 20.5204 8.39631C20.6064 8.48237 20.6745 8.58472 20.7206 8.69738C20.7667 8.81003 20.7899 8.93074 20.7888 9.05245C20.7878 9.17417 20.7625 9.29445 20.7144 9.40629C20.6664 9.51812 20.5965 9.61927 20.509 9.70383L19.2128 11L20.509 12.2962C20.681 12.468 20.7777 12.7012 20.7778 12.9444C20.7779 13.1875 20.6813 13.4208 20.5095 13.5928C20.3376 13.7648 20.1044 13.8615 19.8612 13.8616C19.6181 13.8616 19.3848 13.7651 19.2128 13.5933L17.9167 12.2962L16.6205 13.5933C16.4485 13.7651 16.2153 13.8616 15.9721 13.8616C15.7289 13.8615 15.4958 13.7648 15.3239 13.5928C15.152 13.4208 15.0555 13.1875 15.0556 12.9444C15.0556 12.7012 15.1523 12.468 15.3243 12.2962L16.6205 11L15.3243 9.70383C15.2368 9.61927 15.1669 9.51812 15.1189 9.40629C15.0709 9.29445 15.0456 9.17417 15.0445 9.05245C15.0435 8.93074 15.0667 8.81003 15.1127 8.69738C15.1588 8.58472 15.2269 8.48237 15.313 8.39631C15.399 8.31024 15.5014 8.24217 15.614 8.19608C15.7267 8.14999 15.8474 8.1268 15.9691 8.12785C16.0908 8.12891 16.2111 8.1542 16.323 8.20224C16.4348 8.25028 16.5359 8.32012 16.6205 8.40767Z" fill="#1E1E1E" fill-opacity="0.35"/>
</g>
<defs>
<clipPath id="clip0_199_346">
<rect width="22" height="22" fill="white" transform="translate(0.5)"/>
</clipPath>
</defs>
</svg>
