<svg width="44" height="44" viewBox="0 0 44 44" fill="none" xmlns="http://www.w3.org/2000/svg">
<path d="M36.6667 3.66667H9.16667C7.14162 3.66667 5.5 5.30829 5.5 7.33334V36.6667C5.5 38.6917 7.14162 40.3333 9.16667 40.3333H36.6667C38.6917 40.3333 40.3333 38.6917 40.3333 36.6667V7.33334C40.3333 5.30829 38.6917 3.66667 36.6667 3.66667Z" fill="#01B7F1"/>
<path d="M9.16667 31.1667H5.50001C5.01377 31.1667 4.54746 30.9735 4.20364 30.6297C3.85983 30.2859 3.66667 29.8196 3.66667 29.3333C3.66667 28.8471 3.85983 28.3808 4.20364 28.037C4.54746 27.6932 5.01377 27.5 5.50001 27.5H9.16667C9.6529 27.5 10.1192 27.6932 10.463 28.037C10.8069 28.3808 11 28.8471 11 29.3333C11 29.8196 10.8069 30.2859 10.463 30.6297C10.1192 30.9735 9.6529 31.1667 9.16667 31.1667ZM9.16667 23.8333H5.50001C5.01377 23.8333 4.54746 23.6402 4.20364 23.2964C3.85983 22.9526 3.66667 22.4862 3.66667 22C3.66667 21.5138 3.85983 21.0475 4.20364 20.7036C4.54746 20.3598 5.01377 20.1667 5.50001 20.1667H9.16667C9.6529 20.1667 10.1192 20.3598 10.463 20.7036C10.8069 21.0475 11 21.5138 11 22C11 22.4862 10.8069 22.9526 10.463 23.2964C10.1192 23.6402 9.6529 23.8333 9.16667 23.8333ZM9.16667 16.5H5.50001C5.01377 16.5 4.54746 16.3069 4.20364 15.963C3.85983 15.6192 3.66667 15.1529 3.66667 14.6667C3.66667 14.1804 3.85983 13.7141 4.20364 13.3703C4.54746 13.0265 5.01377 12.8333 5.50001 12.8333H9.16667C9.6529 12.8333 10.1192 13.0265 10.463 13.3703C10.8069 13.7141 11 14.1804 11 14.6667C11 15.1529 10.8069 15.6192 10.463 15.963C10.1192 16.3069 9.6529 16.5 9.16667 16.5ZM31.1667 12.8333H18.3333C17.8471 12.8333 17.3808 13.0265 17.037 13.3703C16.6932 13.7141 16.5 14.1804 16.5 14.6667V18.3333C16.5 18.8196 16.6932 19.2859 17.037 19.6297C17.3808 19.9735 17.8471 20.1667 18.3333 20.1667H31.1667C31.6529 20.1667 32.1192 19.9735 32.463 19.6297C32.8069 19.2859 33 18.8196 33 18.3333V14.6667C33 14.1804 32.8069 13.7141 32.463 13.3703C32.1192 13.0265 31.6529 12.8333 31.1667 12.8333Z" fill="#F2F2F2"/>
</svg>
