<svg width="24" height="24" viewBox="0 0 24 24" fill="none" xmlns="http://www.w3.org/2000/svg">
<path d="M14.625 6.375C14.0423 6.37506 13.4615 6.4427 12.8944 6.57656C12.7257 6.33009 12.5376 6.09748 12.3319 5.88094L13.0416 4.86656C13.2128 4.62215 13.2798 4.31974 13.2281 4.02587C13.1763 3.73199 13.0099 3.47072 12.7655 3.29953C12.5211 3.12834 12.2186 3.06126 11.9248 3.11304C11.6309 3.16481 11.3696 3.33121 11.1984 3.57562L10.4878 4.59375C9.82868 4.30513 9.12019 4.14599 8.40094 4.125L8.18531 2.90625C8.12831 2.61738 7.96032 2.36237 7.71742 2.19596C7.47452 2.02956 7.17605 1.96501 6.88609 2.01618C6.59613 2.06735 6.33779 2.23015 6.16652 2.46965C5.99524 2.70915 5.92469 3.00625 5.97 3.29719L6.18563 4.51594C5.5171 4.78161 4.90574 5.17306 4.38469 5.66906L3.36656 4.95563C3.12215 4.78444 2.81974 4.71735 2.52587 4.76913C2.23199 4.82091 1.97072 4.98731 1.79953 5.23172C1.62834 5.47613 1.56126 5.77854 1.61304 6.07242C1.66481 6.36629 1.83121 6.62756 2.07563 6.79875L3.09375 7.51031C2.80436 8.16886 2.64518 8.8772 2.625 9.59625L1.40625 9.81188C1.12898 9.86045 0.879986 10.0112 0.708432 10.2344C0.536878 10.4576 0.455228 10.737 0.479599 11.0174C0.503969 11.2978 0.63259 11.559 0.840072 11.7492C1.04755 11.9394 1.31882 12.045 1.60031 12.045C1.66629 12.0449 1.73215 12.0392 1.79719 12.0281L3.01594 11.8125C3.10797 12.0461 3.21571 12.2732 3.33844 12.4922C2.6267 13.2347 2.14877 14.17 1.96399 15.1819C1.77921 16.1937 1.89573 17.2375 2.29907 18.1837C2.70241 19.1299 3.37481 19.9368 4.23276 20.5041C5.09072 21.0715 6.09643 21.3743 7.125 21.375H14.625C16.6141 21.375 18.5218 20.5848 19.9283 19.1783C21.3348 17.7718 22.125 15.8641 22.125 13.875C22.125 11.8859 21.3348 9.97822 19.9283 8.5717C18.5218 7.16518 16.6141 6.375 14.625 6.375ZM8.25 6.375C8.71608 6.37537 9.17703 6.47228 9.6038 6.65961C10.0306 6.84693 10.4139 7.12063 10.7297 7.46344C9.39515 8.27285 8.34491 9.47672 7.72406 10.9088C7.52517 10.8862 7.32517 10.8749 7.125 10.875C6.47287 10.8749 5.82647 10.9967 5.21906 11.2341C4.96716 10.7195 4.85036 10.1494 4.87969 9.57723C4.90902 9.00511 5.08349 8.44986 5.38669 7.96379C5.68988 7.47772 6.11182 7.07683 6.61275 6.79887C7.11368 6.52091 7.67712 6.37504 8.25 6.375ZM14.625 19.125H7.125C6.32935 19.125 5.56629 18.8089 5.00368 18.2463C4.44107 17.6837 4.125 16.9206 4.125 16.125C4.125 15.3294 4.44107 14.5663 5.00368 14.0037C5.56629 13.4411 6.32935 13.125 7.125 13.125H7.15125C7.14094 13.2281 7.1325 13.3313 7.12688 13.4344C7.10947 13.7327 7.21131 14.0258 7.40998 14.2491C7.60865 14.4724 7.88788 14.6076 8.18625 14.625C8.48462 14.6424 8.77768 14.5406 9.00097 14.3419C9.22425 14.1432 9.35947 13.864 9.37688 13.5656C9.39671 13.2173 9.45136 12.8718 9.54 12.5344L9.55406 12.4828C9.81254 11.5378 10.33 10.6839 11.0481 10.0173C11.7662 9.35085 12.6562 8.89832 13.6178 8.71086C14.5795 8.52339 15.5743 8.60845 16.4902 8.95643C17.406 9.30441 18.2064 9.90145 18.8009 10.6802C19.3954 11.4589 19.7604 12.3883 19.8547 13.3635C19.949 14.3386 19.7689 15.3208 19.3346 16.199C18.9003 17.0772 18.2292 17.8165 17.397 18.3336C16.5649 18.8506 15.6047 19.1247 14.625 19.125Z" fill="white"/>
</svg>
