<svg width="45" height="44" viewBox="0 0 45 44" fill="none" xmlns="http://www.w3.org/2000/svg">
<path d="M16.768 1.42828C16.0977 1.42828 15.5648 1.95766 15.5648 2.63141C15.5648 3.30516 16.0977 3.83453 16.768 3.83453C17.4383 3.83453 17.9711 3.30516 17.9711 2.63141C17.9711 1.95766 17.4383 1.42828 16.768 1.42828ZM19.2344 1.86656C19.3031 2.10977 19.3461 2.36672 19.3461 2.63141C19.3461 2.89867 19.3031 3.15735 19.2344 3.40227C19.7758 3.43406 20.3344 3.48563 20.9188 3.55781C20.893 3.42289 20.8844 3.28539 20.8844 3.14446C20.8844 2.75 20.9703 2.37531 21.125 2.035C20.4719 1.95508 19.8445 1.89922 19.2344 1.86656ZM23.8063 1.94133C23.1359 1.94133 22.6031 2.47071 22.6031 3.14446C22.6031 3.81821 23.1359 4.34758 23.8063 4.34758C24.4766 4.34758 25.0094 3.81821 25.0094 3.14446C25.0094 2.47071 24.4766 1.94133 23.8063 1.94133ZM13.8805 2.22664C13.0039 2.40711 12.1789 2.6443 11.4227 2.93047C11.7578 3.31805 11.9898 3.79844 12.0672 4.32695C12.6945 4.09492 13.3648 3.89813 14.0867 3.7443C13.932 3.40313 13.8461 3.02672 13.8461 2.63141C13.8461 2.49391 13.8547 2.35899 13.8805 2.22664ZM26.3844 3.14102V3.14961C26.3844 3.69188 26.2211 4.19805 25.9461 4.62602C26.307 4.72828 26.6594 4.83656 27.0289 4.95258L27.0375 4.96117H27.0547C27.175 4.99469 27.2953 5.02906 27.4156 5.06258C27.4414 4.52031 27.6305 4.01758 27.9312 3.60078C27.7852 3.55781 27.6305 3.51571 27.4758 3.4736C27.1062 3.35586 26.7453 3.24758 26.3844 3.1436V3.14102ZM9.51484 3.52C8.84625 3.52 8.31687 4.04938 8.31687 4.72313C8.31687 5.39688 8.84625 5.92625 9.51484 5.92625C10.1852 5.92625 10.718 5.39688 10.718 4.72313C10.718 4.04938 10.1852 3.52 9.51484 3.52ZM30.3375 3.98922C29.6672 3.98922 29.1344 4.5186 29.1344 5.19235C29.1344 5.8661 29.6672 6.39547 30.3375 6.39547C31.0078 6.39547 31.5406 5.8661 31.5406 5.19235C31.5406 4.5186 31.0078 3.98922 30.3375 3.98922ZM32.8984 5.47594C32.8469 6.01477 32.632 6.50891 32.3055 6.9111C32.8297 7.17063 33.3281 7.44133 33.7922 7.72235C33.9383 7.21016 34.2391 6.75727 34.6258 6.41352C34.0844 6.0861 33.5086 5.77328 32.8984 5.47594ZM6.81641 5.79133C6.29734 6.29149 5.8393 6.81914 5.44227 7.36313C5.97078 7.47656 6.44516 7.74297 6.81469 8.11336C7.10773 7.72836 7.43516 7.35195 7.80125 6.99188C7.36898 6.69453 7.02437 6.2786 6.81641 5.79133ZM36.6109 7.27117C35.9406 7.27117 35.4078 7.80055 35.4078 8.4743C35.4078 9.15235 35.9406 9.67656 36.6109 9.67656C37.2812 9.67656 37.8141 9.15235 37.8141 8.4743C37.8141 7.80055 37.2812 7.27117 36.6109 7.27117ZM23.9781 7.7C23.3078 7.7 22.775 8.22938 22.775 8.90313C22.775 9.58203 23.3078 10.1063 23.9781 10.1063C24.6484 10.1063 25.1813 9.58203 25.1813 8.90313C25.1813 8.22938 24.6484 7.7 23.9781 7.7ZM21.1594 8.15719C20.6266 8.28953 20.0852 8.46485 19.5523 8.6711C19.8961 9.05781 20.1281 9.54766 20.2055 10.0805C20.5406 9.95156 20.8672 9.84844 21.1938 9.75391C21.1078 9.4875 21.0562 9.20391 21.0562 8.90313C21.0562 8.64531 21.0906 8.39524 21.1594 8.15719ZM26.5391 8.61094C26.5477 8.70547 26.5562 8.8086 26.5562 8.90313C26.5562 9.3586 26.4445 9.78828 26.2469 10.1664C26.5305 10.2695 26.8227 10.3727 27.1148 10.493C27.1922 9.96016 27.4328 9.47891 27.7766 9.08359C27.3641 8.91172 26.943 8.75703 26.5391 8.61094ZM5.04266 8.85156C4.36891 8.85156 3.83953 9.38438 3.83953 10.0547C3.83953 10.725 4.36891 11.2578 5.04266 11.2578C5.71641 11.2578 6.24578 10.725 6.24578 10.0547C6.24578 9.38438 5.71641 8.85156 5.04266 8.85156ZM17.6617 9.28125C16.9914 9.28125 16.4586 9.81406 16.4586 10.4844C16.4586 11.1547 16.9914 11.6875 17.6617 11.6875C18.332 11.6875 18.8648 11.1547 18.8648 10.4844C18.8648 9.81406 18.332 9.28125 17.6617 9.28125ZM29.8305 9.71094C29.1602 9.71094 28.6273 10.2438 28.6273 10.9141C28.6273 11.5844 29.1602 12.1172 29.8305 12.1172C30.5008 12.1172 31.0336 11.5844 31.0336 10.9141C31.0336 10.2438 30.5008 9.71094 29.8305 9.71094ZM38.8023 9.87422C38.5359 10.3211 38.1406 10.6906 37.6766 10.9313C37.9859 11.3008 38.2609 11.6703 38.5187 12.057C38.9227 11.7305 39.4211 11.5156 39.9625 11.4641C39.6273 10.9141 39.2406 10.3813 38.8023 9.87422ZM14.8172 11.1375C14.3188 11.4469 13.8289 11.7563 13.3477 12.0742C13.743 12.4094 14.0437 12.8563 14.1984 13.3719C14.6625 13.0711 15.1266 12.7703 15.5992 12.4781C15.2211 12.1172 14.9461 11.6531 14.8172 11.1375ZM32.4773 11.6617C32.3312 12.1773 32.0305 12.6328 31.6437 12.9766C31.8844 13.157 32.1164 13.3461 32.3398 13.5438C32.6148 13.0883 33.0187 12.7188 33.5 12.4867C33.1648 12.2031 32.8297 11.9281 32.4773 11.6617ZM3.43391 12.3922C3.34109 13.2688 3.38492 14.1023 3.57742 14.8586C3.94695 14.4375 4.44023 14.1367 4.99711 13.9992C4.94469 13.6297 4.92922 13.2258 4.95586 12.8047H4.87078C4.3457 12.8047 3.85328 12.6586 3.43391 12.3922ZM11.732 12.9508C11.0617 12.9508 10.5289 13.4836 10.5289 14.1539C10.5289 14.8242 11.0617 15.357 11.732 15.357C12.4023 15.357 12.9352 14.8242 12.9352 14.1539C12.9352 13.4836 12.4023 12.9508 11.732 12.9508ZM40.4094 12.9938C39.7391 12.9938 39.2062 13.5266 39.2062 14.1969C39.2062 14.8672 39.7391 15.4 40.4094 15.4C41.0797 15.4 41.6125 14.8672 41.6125 14.1969C41.6125 13.5266 41.0797 12.9938 40.4094 12.9938ZM34.8664 13.7586C34.1961 13.7586 33.6633 14.2914 33.6633 14.9617C33.6633 15.632 34.1961 16.1648 34.8664 16.1648C35.5367 16.1648 36.0695 15.632 36.0695 14.9617C36.0695 14.2914 35.5367 13.7586 34.8664 13.7586ZM8.91328 14.8758C8.60562 15.0477 8.31258 15.2023 8.03586 15.3313C8.25844 15.7352 8.38648 16.1906 8.38648 16.6719C8.38648 16.7406 8.38648 16.8094 8.37789 16.8781C8.43375 16.8523 8.48961 16.8266 8.54633 16.8008C8.92789 16.6289 9.31719 16.4227 9.72109 16.1906C9.33437 15.8469 9.05422 15.3914 8.91328 14.8758ZM5.80836 15.4688C5.13461 15.4688 4.60523 16.0016 4.60523 16.6719C4.60523 17.3422 5.13461 17.875 5.80836 17.875C6.48211 17.875 7.01148 17.3422 7.01148 16.6719C7.01148 16.0016 6.48211 15.4688 5.80836 15.4688ZM41.5695 16.6031C41.1742 16.818 40.7188 16.9469 40.2375 16.9469C40.1687 16.9469 40.1 16.9469 40.0398 16.9383C40.0484 17.4625 40.0055 17.9953 39.9195 18.5367C40.4695 18.5625 40.9852 18.743 41.4062 19.0438C41.4062 19.018 41.4148 18.9836 41.4234 18.9578L41.432 18.9492V18.9406C41.5609 18.15 41.6039 17.368 41.5695 16.6031ZM36.4562 17.0672C36.0523 17.4109 35.5539 17.6344 35.0039 17.6945C35.0812 18.1758 35.0812 18.6656 35.0039 19.1898C35.5453 19.2586 36.0437 19.482 36.4477 19.8172C36.6539 18.8633 36.6453 17.9352 36.4562 17.0672ZM4.76594 19.2758C4.79086 19.6969 4.82351 20.1094 4.86391 20.5219C5.20508 20.3672 5.58234 20.2813 5.97766 20.2813C6.11945 20.2813 6.25867 20.2898 6.39531 20.3156C6.36437 19.9891 6.33773 19.6625 6.31711 19.3359C6.09883 19.3961 5.87109 19.4219 5.63648 19.4219C5.33227 19.4219 5.04008 19.3703 4.76594 19.2758ZM39.9883 20.0836C39.318 20.0836 38.7852 20.6164 38.7852 21.2867C38.7852 21.957 39.318 22.4898 39.9883 22.4898C40.6586 22.4898 41.1914 21.957 41.1914 21.2867C41.1914 20.6164 40.6586 20.0836 39.9883 20.0836ZM34.8578 20.7195C34.1875 20.7195 33.6547 21.2523 33.6547 21.9227C33.6547 22.593 34.1875 23.1258 34.8578 23.1258C35.5281 23.1258 36.0609 22.593 36.0609 21.9227C36.0609 21.2523 35.5281 20.7195 34.8578 20.7195ZM6.14953 21.8281C5.47578 21.8281 4.94641 22.3609 4.94641 23.0313C4.94641 23.7016 5.47578 24.2344 6.14953 24.2344C6.82328 24.2344 7.35266 23.7016 7.35266 23.0313C7.35266 22.3609 6.82328 21.8281 6.14953 21.8281ZM32.0562 22.7305C31.6437 22.868 31.1883 22.9797 30.6984 23.0656C30.8359 23.4008 30.9133 23.7617 30.9133 24.1398C30.9133 24.3031 30.8961 24.4578 30.8703 24.6125C31.6094 24.4836 32.3227 24.3117 32.9758 24.0711C32.5461 23.7273 32.2281 23.2633 32.0562 22.7305ZM28.3352 22.9367C27.6648 22.9367 27.132 23.4695 27.132 24.1398C27.132 24.8102 27.6648 25.343 28.3352 25.343C29.0055 25.343 29.5383 24.8102 29.5383 24.1398C29.5383 23.4695 29.0055 22.9367 28.3352 22.9367ZM37.8914 23.2461C37.6594 23.6328 37.4102 24.0281 37.1523 24.432L36.7398 25.0508C37.2469 25.1969 37.7023 25.4891 38.0461 25.8844C38.1836 25.6781 38.3211 25.4805 38.45 25.2742C38.7336 24.8359 39.0086 24.4062 39.2578 23.9766C38.7336 23.8734 38.2609 23.607 37.8914 23.2461ZM25.4648 23.5984C24.8203 23.6414 24.1672 23.693 23.5398 23.7617L23.3078 23.7875C23.4539 24.1141 23.5312 24.4836 23.5312 24.8617C23.5312 25.0164 23.5141 25.1711 23.4883 25.3258C23.5656 25.3172 23.6344 25.3086 23.7031 25.3C24.3133 25.2398 24.9492 25.1883 25.6023 25.1367C25.482 24.8273 25.4133 24.4922 25.4133 24.1398C25.4133 23.9508 25.4305 23.7703 25.4648 23.5984ZM20.9531 23.6586C20.2828 23.6586 19.75 24.1914 19.75 24.8617C19.75 25.532 20.2828 26.0648 20.9531 26.0648C21.6234 26.0648 22.1562 25.532 22.1562 24.8617C22.1562 24.1914 21.6234 23.6586 20.9531 23.6586ZM7.43086 25.3602C7.00805 25.6266 6.50961 25.7812 5.97766 25.7812H5.94328C6.16242 26.4344 6.41766 27.0703 6.7107 27.6891C7.05273 27.2938 7.50477 26.993 8.01781 26.8383C7.79781 26.357 7.60359 25.8672 7.43086 25.3602ZM18.143 25.6352C18.1258 25.6609 18.1 25.6781 18.0828 25.7039C17.4813 26.3914 17.1977 27.3453 17.3266 28.4109C17.3523 28.6086 17.3867 28.8063 17.4297 29.0125C17.8508 28.7117 18.3664 28.5398 18.9078 28.5227C18.8906 28.4195 18.8734 28.325 18.8648 28.2305C18.7961 27.6719 18.8734 27.3023 19.0453 26.993C18.6242 26.6492 18.3063 26.1766 18.143 25.6352ZM36.1469 26.4859C35.4766 26.4859 34.9437 27.0188 34.9437 27.6891C34.9437 28.3594 35.4766 28.8922 36.1469 28.8922C36.8172 28.8922 37.35 28.3594 37.35 27.6891C37.35 27.0188 36.8172 26.4859 36.1469 26.4859ZM8.96484 28.2734C8.29109 28.2734 7.76172 28.8062 7.76172 29.4766C7.76172 30.1469 8.29109 30.6797 8.96484 30.6797C9.63516 30.6797 10.1594 30.1469 10.1594 29.4766C10.1594 28.8062 9.63516 28.2734 8.96484 28.2734ZM33.5859 29.0383C33.1562 29.5023 32.7266 29.9492 32.2797 30.3789C32.7094 30.6711 33.0531 31.0922 33.2594 31.582C33.7492 31.1094 34.2305 30.6195 34.6945 30.1211C34.2305 29.8719 33.8437 29.4937 33.5859 29.0383ZM19.157 30.0695C18.4867 30.0695 17.9539 30.6023 17.9539 31.2727C17.9539 31.943 18.4867 32.4758 19.157 32.4758C19.8273 32.4758 20.3602 31.943 20.3602 31.2727C20.3602 30.6023 19.8273 30.0695 19.157 30.0695ZM11.2422 30.9289L9.62656 32.1922C9.36016 33.0602 11.1047 40.8805 12.875 42.5734L13.2617 42.1094L12.1016 36.7984L13.8633 41.5078C13.8977 41.482 14.1469 41.3102 14.1812 41.2844L13.4422 39.0758L14.6367 40.9406C15.3672 40.4508 16.1234 40.2359 17.5844 40.107L16.218 37.4602L18.8906 40.0555C19.5953 40.0555 20.3945 40.0984 21.2969 40.1844C19.2945 37.7094 14.0437 31.7195 11.2422 30.9289ZM30.8961 31.4359C30.2258 31.4359 29.693 31.9688 29.693 32.6391C29.693 33.3094 30.2258 33.8422 30.8961 33.8422C31.5664 33.8422 32.0992 33.3094 32.0992 32.6391C32.0992 31.9688 31.5664 31.4359 30.8961 31.4359ZM21.2281 32.8539C20.9359 33.275 20.5234 33.6102 20.0422 33.8078C20.4719 34.2719 20.9273 34.6586 21.4 34.968C21.4344 34.418 21.6234 33.9109 21.9242 33.4984C21.6922 33.3094 21.4602 33.1031 21.2281 32.8539ZM28.1117 33.4813C27.6305 33.7305 27.1664 33.9367 26.7023 34.0914C26.8312 34.4008 26.9 34.7445 26.9 35.1055C26.9 35.3031 26.8828 35.4922 26.8398 35.6727C27.5703 35.4664 28.2836 35.157 28.9969 34.7789C28.5844 34.4438 28.275 33.9969 28.1117 33.4813ZM24.3219 33.9023C23.6516 33.9023 23.1188 34.4352 23.1188 35.1055C23.1188 35.7758 23.6516 36.3086 24.3219 36.3086C24.9922 36.3086 25.525 35.7758 25.525 35.1055C25.525 34.4352 24.9922 33.9023 24.3219 33.9023Z" fill="#01B7F1"/>
</svg>
