<svg width="25" height="24" viewBox="0 0 25 24" fill="none" xmlns="http://www.w3.org/2000/svg">
<g clip-path="url(#clip0_7_11)">
<path fill-rule="evenodd" clip-rule="evenodd" d="M5.14 0.800004C5.14 0.630265 5.07258 0.467479 4.95255 0.347455C4.83253 0.227432 4.66974 0.160004 4.5 0.160004C4.33027 0.160004 4.16748 0.227432 4.04746 0.347455C3.92743 0.467479 3.86 0.630265 3.86 0.800004V1.76H2.9C2.73027 1.76 2.56748 1.82743 2.44746 1.94746C2.32743 2.06748 2.26 2.23027 2.26 2.4C2.26 2.56974 2.32743 2.73253 2.44746 2.85255C2.56748 2.97258 2.73027 3.04 2.9 3.04H3.86V4C3.86 4.08405 3.87656 4.16727 3.90872 4.24492C3.94088 4.32257 3.98803 4.39312 4.04746 4.45255C4.10689 4.51198 4.17744 4.55912 4.25509 4.59129C4.33274 4.62345 4.41596 4.64 4.5 4.64C4.58405 4.64 4.66727 4.62345 4.74492 4.59129C4.82257 4.55912 4.89312 4.51198 4.95255 4.45255C5.01198 4.39312 5.05912 4.32257 5.09129 4.24492C5.12345 4.16727 5.14 4.08405 5.14 4V3.04H6.1C6.26974 3.04 6.43253 2.97258 6.55255 2.85255C6.67258 2.73253 6.74 2.56974 6.74 2.4C6.74 2.23027 6.67258 2.06748 6.55255 1.94746C6.43253 1.82743 6.26974 1.76 6.1 1.76H5.14V0.800004ZM9.94 5.6C9.94 5.51596 9.92345 5.43273 9.89129 5.35509C9.85912 5.27744 9.81198 5.20689 9.75255 5.14746C9.69312 5.08803 9.62257 5.04088 9.54492 5.00872C9.46727 4.97656 9.38405 4.96 9.3 4.96C9.21596 4.96 9.13274 4.97656 9.05509 5.00872C8.97744 5.04088 8.90689 5.08803 8.84746 5.14746C8.78803 5.20689 8.74088 5.27744 8.70872 5.35509C8.67656 5.43273 8.66 5.51596 8.66 5.6V6.56H7.7C7.61596 6.56 7.53273 6.57656 7.45509 6.60872C7.37744 6.64088 7.30689 6.68803 7.24746 6.74746C7.18803 6.80689 7.14088 6.87744 7.10872 6.95509C7.07656 7.03273 7.06 7.11596 7.06 7.2C7.06 7.28405 7.07656 7.36727 7.10872 7.44492C7.14088 7.52257 7.18803 7.59312 7.24746 7.65255C7.30689 7.71198 7.37744 7.75912 7.45509 7.79129C7.53273 7.82345 7.61596 7.84 7.7 7.84H8.66V8.8C8.66 8.88405 8.67656 8.96727 8.70872 9.04492C8.74088 9.12257 8.78803 9.19312 8.84746 9.25255C8.90689 9.31198 8.97744 9.35912 9.05509 9.39129C9.13274 9.42345 9.21596 9.44 9.3 9.44C9.38405 9.44 9.46727 9.42345 9.54492 9.39129C9.62257 9.35912 9.69312 9.31198 9.75255 9.25255C9.81198 9.19312 9.85912 9.12257 9.89129 9.04492C9.92345 8.96727 9.94 8.88405 9.94 8.8V7.84H10.9C11.0697 7.84 11.2325 7.77258 11.3526 7.65255C11.4726 7.53253 11.54 7.36974 11.54 7.2C11.54 7.03027 11.4726 6.86748 11.3526 6.74746C11.2325 6.62743 11.0697 6.56 10.9 6.56H9.94V5.6ZM3.54 10.4C3.54 10.2303 3.47258 10.0675 3.35255 9.94746C3.23253 9.82743 3.06974 9.76 2.9 9.76C2.73027 9.76 2.56748 9.82743 2.44746 9.94746C2.32743 10.0675 2.26 10.2303 2.26 10.4V11.36H1.3C1.13027 11.36 0.967479 11.4274 0.847455 11.5475C0.727432 11.6675 0.660004 11.8303 0.660004 12C0.660004 12.1697 0.727432 12.3325 0.847455 12.4526C0.967479 12.5726 1.13027 12.64 1.3 12.64H2.26V13.6C2.26 13.7697 2.32743 13.9325 2.44746 14.0526C2.56748 14.1726 2.73027 14.24 2.9 14.24C3.06974 14.24 3.23253 14.1726 3.35255 14.0526C3.47258 13.9325 3.54 13.7697 3.54 13.6V12.64H4.5C4.66974 12.64 4.83253 12.5726 4.95255 12.4526C5.07258 12.3325 5.14 12.1697 5.14 12C5.14 11.8303 5.07258 11.6675 4.95255 11.5475C4.83253 11.4274 4.66974 11.36 4.5 11.36H3.54V10.4ZM14.1704 1.5712L13.6936 1.5072C13.3528 1.4688 13.1496 1.8656 13.3464 2.1472C14.5725 3.91233 15.228 6.01084 15.2248 8.16C15.2239 10.8615 14.188 13.4599 12.3301 15.4211C10.4722 17.3823 7.93349 18.5571 5.236 18.704C4.8936 18.7232 4.7032 19.1264 4.9432 19.3712C5.05281 19.4835 5.16484 19.5934 5.2792 19.7008L5.3944 19.8064L5.8104 20.168L6.1112 20.4048L6.3048 20.5488L6.604 20.7584L6.8856 20.9424C7.0776 21.064 7.276 21.1808 7.4776 21.2896L7.9 21.5056L8.316 21.6976L8.8008 21.8928L9.1912 22.0304C9.76639 22.2197 10.3569 22.3588 10.956 22.4464L11.4632 22.5104L11.8904 22.5424C13.4262 22.632 14.9631 22.385 16.3935 21.8186C17.8239 21.2522 19.1132 20.3801 20.1714 19.2633C21.2295 18.1465 22.0308 16.812 22.5192 15.3532C23.0077 13.8943 23.1715 12.3464 22.9992 10.8176L22.94 10.3744C22.8205 9.59914 22.6144 8.83973 22.3256 8.1104L22.1448 7.6816L22.0216 7.416L21.9032 7.1792C21.6495 6.68607 21.3574 6.21368 21.0296 5.7664L20.7848 5.4464L20.4664 5.0624L20.2056 4.7744L20.0136 4.576L19.7576 4.3232L19.4008 4.0032L18.8888 3.5872L18.4968 3.304L18.0296 3L17.516 2.7024L16.9912 2.4384L16.8104 2.3552L16.4264 2.1936L15.9848 2.0272L15.5816 1.896L15.0616 1.752L14.6376 1.656L14.1704 1.5712ZM17.1464 8.48C17.1476 6.89149 16.8366 5.31822 16.2312 3.8496C18.3839 4.857 20.0483 6.6783 20.8581 8.91283C21.668 11.1474 21.557 13.6121 20.5496 15.7648C19.5422 17.9175 17.7209 19.5819 15.4864 20.3917C13.2518 21.2016 10.7871 21.0906 8.6344 20.0832C10.9421 19.3561 12.9808 17.958 14.4904 16.0672C14.6393 16.2722 14.8493 16.4247 15.0903 16.5028C15.3313 16.581 15.5908 16.5808 15.8317 16.5022C16.0725 16.4237 16.2823 16.2708 16.4308 16.0656C16.5793 15.8604 16.659 15.6133 16.6584 15.36C16.6586 15.0877 16.5662 14.8235 16.3964 14.6107C16.2266 14.3978 15.9895 14.2491 15.724 14.1888C15.8232 14.0032 15.9192 13.8128 16.0088 13.6208C16.2719 13.7836 16.5692 13.8831 16.8773 13.9115C17.1854 13.94 17.4958 13.8965 17.7843 13.7847C18.0728 13.6728 18.3313 13.4955 18.5397 13.2668C18.748 13.038 18.9004 12.7641 18.985 12.4665C19.0695 12.1689 19.0838 11.8557 19.0269 11.5516C18.9699 11.2475 18.8431 10.9608 18.6565 10.714C18.4699 10.4671 18.2287 10.267 17.9516 10.1292C17.6746 9.99145 17.3694 9.91984 17.06 9.92C17.1144 9.448 17.1432 8.968 17.1432 8.48H17.1464Z" fill="white"/>
</g>
<defs>
<clipPath id="clip0_7_11">
<rect width="24" height="24" fill="white" transform="translate(0.5)"/>
</clipPath>
</defs>
</svg>
