<svg width="25" height="24" viewBox="0 0 25 24" fill="none" xmlns="http://www.w3.org/2000/svg">
<path fill-rule="evenodd" clip-rule="evenodd" d="M14.2399 5.333C14.2399 3.493 15.7399 2 17.5879 2C18.0266 1.99895 18.4613 2.08432 18.867 2.25125C19.2728 2.41818 19.6417 2.6634 19.9527 2.97289C20.2637 3.28239 20.5106 3.65011 20.6795 4.05506C20.8484 4.46001 20.9358 4.89425 20.9369 5.333C20.9369 7.174 19.4369 8.667 17.5879 8.667C17.1445 8.66754 16.7054 8.57995 16.2961 8.40931C15.8868 8.23867 15.5156 7.98838 15.2039 7.673L10.5689 10.829C10.698 11.472 10.6347 12.1388 10.3869 12.746L15.4689 16.086C16.0675 15.5978 16.8165 15.3318 17.5889 15.333C18.0276 15.3321 18.4623 15.4176 18.868 15.5846C19.2737 15.7517 19.6425 15.997 19.9534 16.3066C20.2643 16.6162 20.5111 16.984 20.6799 17.389C20.8486 17.794 20.936 18.2283 20.9369 18.667C20.9369 20.507 19.4369 22 17.5879 22C16.702 22.0019 15.8516 21.6518 15.2237 21.0267C14.5959 20.4017 14.242 19.5529 14.2399 18.667C14.2391 18.1996 14.3376 17.7374 14.5289 17.311L9.48689 14C8.8763 14.5309 8.09401 14.8226 7.28489 14.821C6.84611 14.8221 6.41142 14.7366 6.00566 14.5696C5.5999 14.4026 5.23102 14.1573 4.9201 13.8477C4.60918 13.5381 4.36232 13.1702 4.19362 12.7652C4.02491 12.3601 3.93768 11.9258 3.93689 11.487C3.93781 11.0483 4.02514 10.6141 4.1939 10.2091C4.36267 9.80419 4.60955 9.43647 4.92045 9.12696C5.23136 8.81744 5.60019 8.57221 6.00589 8.40527C6.41158 8.23833 6.84619 8.15295 7.28489 8.154C8.34889 8.154 9.29489 8.647 9.90789 9.415L14.4009 6.356C14.294 6.02553 14.2397 5.68032 14.2399 5.333Z" fill="#005773"/>
</svg>
