<svg width="24" height="26" viewBox="0 0 24 26" fill="none" xmlns="http://www.w3.org/2000/svg">
<path d="M16.4945 3.88899C14.5597 3.88899 12.9065 5.38299 11.9982 6.41299C11.0899 5.38299 9.44031 3.88899 7.50647 3.88899C4.17324 3.88899 1.84616 6.40599 1.84616 10.009C1.84616 13.979 4.73631 16.545 7.53231 19.027C8.85231 20.2 10.2185 21.412 11.2662 22.756C11.4425 22.981 11.7009 23.111 11.9723 23.111H12.0259C12.2982 23.111 12.5557 22.98 12.7311 22.756C13.7806 21.412 15.1459 20.199 16.4668 19.027C19.2619 16.546 22.1539 13.98 22.1539 10.009C22.1539 6.40599 19.8268 3.88899 16.4945 3.88899Z" fill="#01B7F1"/>
</svg>
