<svg width="19" height="17" viewBox="0 0 19 17" fill="none" xmlns="http://www.w3.org/2000/svg">
<path d="M10.6262 0.193785C10.7739 0.0881284 10.9467 0.0230667 11.1274 0.00509581C11.3081 -0.0128751 11.4904 0.0168736 11.656 0.0913716C11.8216 0.16587 11.9648 0.28251 12.0712 0.429646C12.1776 0.576783 12.2436 0.749267 12.2625 0.929877L12.2682 1.03746V15.7706C12.2683 15.9522 12.2207 16.1307 12.1302 16.2881C12.0397 16.4456 11.9095 16.5766 11.7526 16.668C11.5957 16.7594 11.4175 16.808 11.2359 16.809C11.0543 16.8101 10.8756 16.7634 10.7177 16.6738L10.6271 16.6152L4.41655 12.1789H1.88742C1.41124 12.179 0.95261 11.9992 0.603456 11.6754C0.254302 11.3516 0.0404316 10.9078 0.00471865 10.433L0 10.2915V6.51663C8.73645e-05 6.04062 0.180033 5.58222 0.503786 5.23327C0.82754 4.88431 1.27119 4.67058 1.74586 4.63487L1.88742 4.62921H4.41655L10.6262 0.193785ZM14.7086 5.73524L16.043 7.06964L17.3774 5.73524C17.4645 5.6451 17.5686 5.57321 17.6838 5.52375C17.7989 5.47429 17.9227 5.44826 18.048 5.44717C18.1733 5.44608 18.2976 5.46996 18.4136 5.51741C18.5296 5.56486 18.6349 5.63493 18.7235 5.72354C18.8121 5.81215 18.8822 5.91752 18.9297 6.03349C18.9771 6.14947 19.001 6.27374 18.9999 6.39904C18.9988 6.52435 18.9728 6.64818 18.9233 6.76332C18.8739 6.87845 18.802 6.98259 18.7118 7.06964L17.3774 8.40404L18.7118 9.73845C18.8889 9.9154 18.9885 10.1555 18.9885 10.4058C18.9886 10.6561 18.8893 10.8962 18.7123 11.0733C18.5354 11.2504 18.2953 11.3499 18.045 11.35C17.7946 11.3501 17.5545 11.2507 17.3774 11.0738L16.043 9.73845L14.7086 11.0738C14.5316 11.2507 14.2914 11.3501 14.0411 11.35C13.7908 11.3499 13.5507 11.2504 13.3738 11.0733C13.1968 10.8962 13.0974 10.6561 13.0975 10.4058C13.0976 10.1555 13.1972 9.9154 13.3742 9.73845L14.7086 8.40404L13.3742 7.06964C13.2841 6.98259 13.2122 6.87845 13.1627 6.76332C13.1133 6.64818 13.0873 6.52435 13.0862 6.39904C13.0851 6.27374 13.109 6.14947 13.1564 6.03349C13.2039 5.91752 13.2739 5.81215 13.3625 5.72354C13.4511 5.63493 13.5565 5.56486 13.6725 5.51741C13.7885 5.46996 13.9127 5.44608 14.038 5.44717C14.1633 5.44826 14.2872 5.47429 14.4023 5.52375C14.5174 5.57321 14.6216 5.6451 14.7086 5.73524Z" fill="#1E1E1E" fill-opacity="0.35"/>
</svg>
